<svg xmlns="http://www.w3.org/2000/svg" viewBox="0 0 225.56 51.63">
    <title>logo</title>
    <circle cx="0.75" cy="0.75" r="0.75" fill="#322f31" />
    <circle cx="3.75" cy="0.75" r="0.75" fill="#322f31" />
    <path d="M458.74,273.32a0.75,0.75,0,1,1,.75-0.75A0.75,0.75,0,0,1,458.74,273.32Z" transform="translate(-451.99 -271.83)" fill="#322f31" />
    <circle cx="9.76" cy="0.75" r="0.75" fill="#322f31" />
    <circle cx="12.77" cy="0.75" r="0.75" fill="#322f31" />
    <circle cx="15.77" cy="0.75" r="0.75" fill="#322f31" />
    <ellipse cx="18.78" cy="0.75" rx="0.74" ry="0.75" fill="#322f31" />
    <circle cx="21.78" cy="0.75" r="0.75" fill="#322f31" />
    <circle cx="24.79" cy="0.75" r="0.75" fill="#322f31" />
    <circle cx="27.79" cy="0.75" r="0.75" fill="#322f31" />
    <circle cx="33.81" cy="0.75" r="0.75" fill="#322f31" />
    <circle cx="36.81" cy="0.75" r="0.75" fill="#322f31" />
    <ellipse cx="39.82" cy="0.75" rx="0.74" ry="0.75" fill="#322f31" />
    <ellipse cx="42.82" cy="0.75" rx="0.74" ry="0.75" fill="#322f31" />
    <circle cx="45.83" cy="0.75" r="0.75" fill="#322f31" />
    <circle cx="51.84" cy="0.75" r="0.75" fill="#322f31" />
    <ellipse cx="30.8" cy="0.75" rx="0.74" ry="0.75" fill="#322f31" />
    <circle cx="48.83" cy="0.75" r="0.75" fill="#322f31" />
    <circle cx="0.75" cy="3.54" r="0.75" fill="#322f31" />
    <circle cx="3.75" cy="3.54" r="0.75" fill="#322f31" />
    <path d="M458.74,276.11a0.74,0.74,0,1,1,.75-0.74A0.75,0.75,0,0,1,458.74,276.11Z" transform="translate(-451.99 -271.83)" fill="#322f31" />
    <circle cx="9.76" cy="3.54" r="0.75" fill="#322f31" />
    <circle cx="12.77" cy="3.54" r="0.74" fill="#322f31" />
    <circle cx="15.77" cy="3.54" r="0.75" fill="#322f31" />
    <circle cx="18.78" cy="3.54" r="0.74" fill="#322f31" />
    <circle cx="21.78" cy="3.54" r="0.75" fill="#322f31" />
    <circle cx="24.79" cy="3.54" r="0.75" fill="#322f31" />
    <circle cx="27.79" cy="3.54" r="0.75" fill="#322f31" />
    <circle cx="33.81" cy="3.54" r="0.74" fill="#322f31" />
    <circle cx="36.81" cy="3.54" r="0.75" fill="#322f31" />
    <circle cx="39.82" cy="3.54" r="0.74" fill="#322f31" />
    <circle cx="42.82" cy="3.54" r="0.74" fill="#322f31" />
    <circle cx="45.83" cy="3.54" r="0.74" fill="#322f31" />
    <circle cx="51.84" cy="3.54" r="0.75" fill="#322f31" />
    <circle cx="30.8" cy="3.54" r="0.74" fill="#322f31" />
    <circle cx="48.83" cy="3.54" r="0.74" fill="#322f31" />
    <path d="M452.74,278.89a0.75,0.75,0,1,1,.74-0.75A0.74,0.74,0,0,1,452.74,278.89Z" transform="translate(-451.99 -271.83)" fill="#322f31" />
    <path d="M455.74,278.89a0.75,0.75,0,1,1,.75-0.75A0.74,0.74,0,0,1,455.74,278.89Z" transform="translate(-451.99 -271.83)" fill="#322f31" />
    <path d="M458.74,278.89a0.75,0.75,0,1,1,.75-0.75A0.74,0.74,0,0,1,458.74,278.89Z" transform="translate(-451.99 -271.83)" fill="#322f31" />
    <path d="M461.75,278.89a0.75,0.75,0,1,1,.74-0.75A0.75,0.75,0,0,1,461.75,278.89Z" transform="translate(-451.99 -271.83)" fill="#322f31" />
    <path d="M464.76,278.89a0.75,0.75,0,1,1,.74-0.75A0.74,0.74,0,0,1,464.76,278.89Z" transform="translate(-451.99 -271.83)" fill="#322f31" />
    <path d="M467.76,278.89a0.75,0.75,0,1,1,.75-0.75A0.75,0.75,0,0,1,467.76,278.89Z" transform="translate(-451.99 -271.83)" fill="#322f31" />
    <path d="M470.76,278.89a0.75,0.75,0,1,1,.74-0.75A0.74,0.74,0,0,1,470.76,278.89Z" transform="translate(-451.99 -271.83)" fill="#322f31" />
    <path d="M473.77,278.89a0.75,0.75,0,1,1,.74-0.75A0.75,0.75,0,0,1,473.77,278.89Z" transform="translate(-451.99 -271.83)" fill="#322f31" />
    <path d="M476.77,278.89a0.75,0.75,0,1,1,.75-0.75A0.74,0.74,0,0,1,476.77,278.89Z" transform="translate(-451.99 -271.83)" fill="#322f31" />
    <path d="M479.78,278.89a0.75,0.75,0,1,1,.75-0.75A0.74,0.74,0,0,1,479.78,278.89Z" transform="translate(-451.99 -271.83)" fill="#322f31" />
    <path d="M485.79,278.89a0.75,0.75,0,1,1,.74-0.75A0.74,0.74,0,0,1,485.79,278.89Z" transform="translate(-451.99 -271.83)" fill="#322f31" />
    <path d="M488.8,278.89a0.75,0.75,0,1,1,.75-0.75A0.74,0.74,0,0,1,488.8,278.89Z" transform="translate(-451.99 -271.83)" fill="#322f31" />
    <path d="M491.8,278.89a0.75,0.75,0,1,1,.74-0.75A0.74,0.74,0,0,1,491.8,278.89Z" transform="translate(-451.99 -271.83)" fill="#322f31" />
    <path d="M494.81,278.89a0.75,0.75,0,1,1,.74-0.75A0.74,0.74,0,0,1,494.81,278.89Z" transform="translate(-451.99 -271.83)" fill="#322f31" />
    <path d="M497.81,278.89a0.75,0.75,0,1,1,.74-0.75A0.75,0.75,0,0,1,497.81,278.89Z" transform="translate(-451.99 -271.83)" fill="#322f31" />
    <path d="M503.82,278.89a0.75,0.75,0,1,1,.75-0.75A0.74,0.74,0,0,1,503.82,278.89Z" transform="translate(-451.99 -271.83)" fill="#322f31" />
    <path d="M482.78,278.89a0.75,0.75,0,1,1,.74-0.75A0.74,0.74,0,0,1,482.78,278.89Z" transform="translate(-451.99 -271.83)" fill="#322f31" />
    <path d="M500.82,278.89a0.75,0.75,0,1,1,.75-0.75A0.74,0.74,0,0,1,500.82,278.89Z" transform="translate(-451.99 -271.83)" fill="#322f31" />
    <circle cx="0.75" cy="9.11" r="0.75" fill="#322f31" />
    <circle cx="3.75" cy="9.11" r="0.75" fill="#322f31" />
    <path d="M458.74,281.68a0.74,0.74,0,1,1,.75-0.74A0.74,0.74,0,0,1,458.74,281.68Z" transform="translate(-451.99 -271.83)" fill="#322f31" />
    <circle cx="45.83" cy="9.11" r="0.74" fill="#322f31" />
    <circle cx="51.84" cy="9.11" r="0.75" fill="#322f31" />
    <circle cx="48.83" cy="9.11" r="0.74" fill="#322f31" />
    <circle cx="0.75" cy="11.89" r="0.75" fill="#322f31" />
    <circle cx="3.75" cy="11.89" r="0.75" fill="#322f31" />
    <path d="M458.74,284.46a0.74,0.74,0,1,1,.75-0.75A0.75,0.75,0,0,1,458.74,284.46Z" transform="translate(-451.99 -271.83)" fill="#322f31" />
    <circle cx="45.83" cy="11.89" r="0.74" fill="#322f31" />
    <circle cx="51.84" cy="11.89" r="0.75" fill="#322f31" />
    <circle cx="48.83" cy="11.89" r="0.74" fill="#322f31" />
    <path d="M452.74,287.24a0.74,0.74,0,1,1,.74-0.74A0.74,0.74,0,0,1,452.74,287.24Z" transform="translate(-451.99 -271.83)" fill="#322f31" />
    <path d="M455.74,287.24a0.74,0.74,0,1,1,.75-0.74A0.74,0.74,0,0,1,455.74,287.24Z" transform="translate(-451.99 -271.83)" fill="#322f31" />
    <path d="M458.74,287.24a0.74,0.74,0,1,1,.75-0.74A0.74,0.74,0,0,1,458.74,287.24Z" transform="translate(-451.99 -271.83)" fill="#322f31" />
    <path d="M497.81,287.24a0.74,0.74,0,1,1,.74-0.74A0.75,0.75,0,0,1,497.81,287.24Z" transform="translate(-451.99 -271.83)" fill="#322f31" />
    <path d="M503.82,287.24a0.74,0.74,0,1,1,.75-0.74A0.74,0.74,0,0,1,503.82,287.24Z" transform="translate(-451.99 -271.83)" fill="#322f31" />
    <path d="M500.82,287.24a0.74,0.74,0,0,1,0-1.49A0.74,0.74,0,1,1,500.82,287.24Z" transform="translate(-451.99 -271.83)" fill="#322f31" />
    <circle cx="0.75" cy="17.46" r="0.75" fill="#322f31" />
    <circle cx="3.75" cy="17.46" r="0.75" fill="#322f31" />
    <path d="M458.74,290a0.74,0.74,0,1,1,.75-0.75A0.75,0.75,0,0,1,458.74,290Z" transform="translate(-451.99 -271.83)" fill="#322f31" />
    <circle cx="0.75" cy="20.25" r="0.75" fill="#322f31" />
    <circle cx="3.75" cy="20.25" r="0.75" fill="#322f31" />
    <path d="M458.74,292.82a0.75,0.75,0,1,1,.75-0.75A0.75,0.75,0,0,1,458.74,292.82Z" transform="translate(-451.99 -271.83)" fill="#322f31" />
    <circle cx="45.83" cy="20.25" r="0.75" fill="#322f31" />
    <circle cx="48.83" cy="20.25" r="0.75" fill="#322f31" />
    <circle cx="0.75" cy="23.03" r="0.75" fill="#322f31" />
    <circle cx="3.75" cy="23.03" r="0.75" fill="#322f31" />
    <path d="M458.74,295.6a0.75,0.75,0,1,1,.75-0.75A0.75,0.75,0,0,1,458.74,295.6Z" transform="translate(-451.99 -271.83)" fill="#322f31" />
    <circle cx="45.83" cy="23.03" r="0.75" fill="#322f31" />
    <circle cx="48.83" cy="23.03" r="0.75" fill="#322f31" />
    <circle cx="0.75" cy="25.82" r="0.75" fill="#322f31" />
    <circle cx="3.75" cy="25.82" r="0.75" fill="#322f31" />
    <path d="M458.74,298.39a0.75,0.75,0,1,1,.75-0.75A0.75,0.75,0,0,1,458.74,298.39Z" transform="translate(-451.99 -271.83)" fill="#322f31" />
    <circle cx="45.83" cy="25.82" r="0.75" fill="#322f31" />
    <circle cx="48.83" cy="25.82" r="0.75" fill="#322f31" />
    <circle cx="0.75" cy="28.6" r="0.75" fill="#322f31" />
    <circle cx="3.75" cy="28.6" r="0.75" fill="#322f31" />
    <path d="M458.74,301.17a0.75,0.75,0,1,1,.75-0.74A0.74,0.74,0,0,1,458.74,301.17Z" transform="translate(-451.99 -271.83)" fill="#322f31" />
    <circle cx="45.83" cy="28.6" r="0.75" fill="#322f31" />
    <circle cx="48.83" cy="28.6" r="0.75" fill="#322f31" />
    <circle cx="0.75" cy="31.39" r="0.75" fill="#322f31" />
    <circle cx="3.75" cy="31.39" r="0.75" fill="#322f31" />
    <path d="M458.74,304a0.75,0.75,0,1,1,.75-0.74A0.74,0.74,0,0,1,458.74,304Z" transform="translate(-451.99 -271.83)" fill="#322f31" />
    <circle cx="45.83" cy="31.39" r="0.75" fill="#322f31" />
    <circle cx="48.83" cy="31.39" r="0.75" fill="#322f31" />
    <circle cx="0.75" cy="34.17" r="0.75" fill="#322f31" />
    <circle cx="3.75" cy="34.17" r="0.75" fill="#322f31" />
    <path d="M458.74,306.74a0.75,0.75,0,1,1,.75-0.74A0.74,0.74,0,0,1,458.74,306.74Z" transform="translate(-451.99 -271.83)" fill="#322f31" />
    <circle cx="45.83" cy="34.17" r="0.75" fill="#322f31" />
    <circle cx="45.83" cy="17.46" r="0.74" fill="#322f31" />
    <circle cx="51.84" cy="17.46" r="0.75" fill="#322f31" />
    <circle cx="48.83" cy="17.46" r="0.74" fill="#322f31" />
    <circle cx="51.84" cy="20.25" r="0.75" fill="#322f31" />
    <circle cx="51.84" cy="23.03" r="0.75" fill="#322f31" />
    <circle cx="51.84" cy="25.82" r="0.75" fill="#322f31" />
    <circle cx="51.84" cy="28.6" r="0.75" fill="#322f31" />
    <circle cx="51.84" cy="31.39" r="0.75" fill="#322f31" />
    <circle cx="51.84" cy="34.17" r="0.75" fill="#322f31" />
    <circle cx="18.14" cy="18.86" r="0.74" fill="#322f31" />
    <circle cx="18.14" cy="21.64" r="0.75" fill="#322f31" />
    <circle cx="18.14" cy="24.43" r="0.74" fill="#322f31" />
    <circle cx="18.14" cy="27.21" r="0.75" fill="#322f31" />
    <circle cx="18.14" cy="30" r="0.75" fill="#322f31" />
    <circle cx="18.14" cy="32.78" r="0.75" fill="#322f31" />
    <path d="M470.13,308.14a0.75,0.75,0,1,1,.74-0.75A0.74,0.74,0,0,1,470.13,308.14Z" transform="translate(-451.99 -271.83)" fill="#322f31" />
    <circle cx="18.14" cy="16.07" r="0.75" fill="#322f31" />
    <circle cx="15.13" cy="18.86" r="0.75" fill="#322f31" />
    <circle cx="15.13" cy="21.64" r="0.75" fill="#322f31" />
    <circle cx="15.13" cy="24.43" r="0.74" fill="#322f31" />
    <circle cx="15.13" cy="27.21" r="0.75" fill="#322f31" />
    <circle cx="15.13" cy="30" r="0.75" fill="#322f31" />
    <circle cx="15.13" cy="32.78" r="0.75" fill="#322f31" />
    <path d="M467.12,308.14a0.75,0.75,0,1,1,.74-0.75A0.74,0.74,0,0,1,467.12,308.14Z" transform="translate(-451.99 -271.83)" fill="#322f31" />
    <path d="M467.12,288.64a0.75,0.75,0,1,1,.74-0.75A0.75,0.75,0,0,1,467.12,288.64Z" transform="translate(-451.99 -271.83)" fill="#322f31" />
    <circle cx="25.43" cy="18.86" r="0.74" fill="#322f31" />
    <circle cx="34.44" cy="18.86" r="0.75" fill="#322f31" />
    <circle cx="37.45" cy="18.86" r="0.74" fill="#322f31" />
    <circle cx="22.42" cy="18.86" r="0.74" fill="#322f31" />
    <circle cx="31.44" cy="18.86" r="0.75" fill="#322f31" />
    <circle cx="28.43" cy="18.86" r="0.75" fill="#322f31" />
    <circle cx="25.43" cy="16.07" r="0.75" fill="#322f31" />
    <circle cx="34.44" cy="16.07" r="0.75" fill="#322f31" />
    <circle cx="37.45" cy="16.07" r="0.74" fill="#322f31" />
    <circle cx="22.42" cy="16.07" r="0.75" fill="#322f31" />
    <circle cx="31.44" cy="16.07" r="0.75" fill="#322f31" />
    <circle cx="28.43" cy="16.07" r="0.75" fill="#322f31" />
    <circle cx="28.43" cy="21.64" r="0.75" fill="#322f31" />
    <circle cx="28.43" cy="24.43" r="0.75" fill="#322f31" />
    <circle cx="28.43" cy="27.21" r="0.75" fill="#322f31" />
    <circle cx="28.43" cy="30" r="0.75" fill="#322f31" />
    <circle cx="28.43" cy="32.78" r="0.75" fill="#322f31" />
    <path d="M480.42,308.14a0.75,0.75,0,1,1,.75-0.75A0.75,0.75,0,0,1,480.42,308.14Z" transform="translate(-451.99 -271.83)" fill="#322f31" />
    <circle cx="31.44" cy="21.64" r="0.75" fill="#322f31" />
    <circle cx="31.44" cy="24.43" r="0.74" fill="#322f31" />
    <circle cx="31.44" cy="27.21" r="0.75" fill="#322f31" />
    <circle cx="31.44" cy="30" r="0.75" fill="#322f31" />
    <circle cx="31.44" cy="32.78" r="0.75" fill="#322f31" />
    <path d="M483.42,308.14a0.75,0.75,0,1,1,.74-0.75A0.74,0.74,0,0,1,483.42,308.14Z" transform="translate(-451.99 -271.83)" fill="#322f31" />
    <circle cx="48.83" cy="34.17" r="0.75" fill="#322f31" />
    <circle cx="0.75" cy="36.96" r="0.75" fill="#322f31" />
    <circle cx="3.75" cy="36.96" r="0.75" fill="#322f31" />
    <path d="M458.74,309.53a0.75,0.75,0,1,1,.75-0.75A0.75,0.75,0,0,1,458.74,309.53Z" transform="translate(-451.99 -271.83)" fill="#322f31" />
    <circle cx="45.83" cy="36.96" r="0.75" fill="#322f31" />
    <circle cx="51.84" cy="36.96" r="0.75" fill="#322f31" />
    <circle cx="48.83" cy="36.96" r="0.75" fill="#322f31" />
    <circle cx="0.75" cy="39.74" r="0.75" fill="#322f31" />
    <circle cx="3.75" cy="39.74" r="0.75" fill="#322f31" />
    <path d="M458.74,312.32a0.75,0.75,0,1,1,.75-0.75A0.75,0.75,0,0,1,458.74,312.32Z" transform="translate(-451.99 -271.83)" fill="#322f31" />
    <circle cx="45.83" cy="39.74" r="0.75" fill="#322f31" />
    <circle cx="51.84" cy="39.74" r="0.75" fill="#322f31" />
    <circle cx="48.83" cy="39.74" r="0.75" fill="#322f31" />
    <circle cx="0.75" cy="42.53" r="0.75" fill="#322f31" />
    <circle cx="3.75" cy="42.53" r="0.75" fill="#322f31" />
    <path d="M458.74,315.1a0.75,0.75,0,1,1,.75-0.74A0.75,0.75,0,0,1,458.74,315.1Z" transform="translate(-451.99 -271.83)" fill="#322f31" />
    <circle cx="45.83" cy="42.53" r="0.75" fill="#322f31" />
    <circle cx="51.84" cy="42.53" r="0.75" fill="#322f31" />
    <circle cx="9.76" cy="9.11" r="0.75" fill="#322f31" />
    <circle cx="12.77" cy="9.11" r="0.74" fill="#322f31" />
    <circle cx="15.77" cy="9.11" r="0.75" fill="#322f31" />
    <circle cx="18.78" cy="9.11" r="0.74" fill="#322f31" />
    <circle cx="21.78" cy="9.11" r="0.75" fill="#322f31" />
    <circle cx="24.79" cy="9.11" r="0.75" fill="#322f31" />
    <circle cx="27.79" cy="9.11" r="0.75" fill="#322f31" />
    <circle cx="33.81" cy="9.11" r="0.74" fill="#322f31" />
    <circle cx="36.81" cy="9.11" r="0.75" fill="#322f31" />
    <circle cx="39.82" cy="9.11" r="0.74" fill="#322f31" />
    <circle cx="42.82" cy="9.11" r="0.74" fill="#322f31" />
    <circle cx="30.8" cy="9.11" r="0.74" fill="#322f31" />
    <circle cx="9.76" cy="11.89" r="0.75" fill="#322f31" />
    <circle cx="42.82" cy="11.89" r="0.74" fill="#322f31" />
    <path d="M461.75,287.24a0.74,0.74,0,1,1,.74-0.74A0.75,0.75,0,0,1,461.75,287.24Z" transform="translate(-451.99 -271.83)" fill="#322f31" />
    <path d="M494.81,287.24a0.74,0.74,0,1,1,.74-0.74A0.74,0.74,0,0,1,494.81,287.24Z" transform="translate(-451.99 -271.83)" fill="#322f31" />
    <circle cx="42.82" cy="17.46" r="0.74" fill="#322f31" />
    <ellipse cx="42.82" cy="20.25" rx="0.74" ry="0.75" fill="#322f31" />
    <circle cx="42.82" cy="23.03" r="0.74" fill="#322f31" />
    <circle cx="42.82" cy="25.82" r="0.74" fill="#322f31" />
    <circle cx="42.82" cy="28.6" r="0.74" fill="#322f31" />
    <circle cx="42.82" cy="31.39" r="0.74" fill="#322f31" />
    <circle cx="9.76" cy="17.46" r="0.75" fill="#322f31" />
    <circle cx="9.76" cy="20.25" r="0.75" fill="#322f31" />
    <circle cx="9.76" cy="23.03" r="0.75" fill="#322f31" />
    <circle cx="9.76" cy="25.82" r="0.75" fill="#322f31" />
    <circle cx="9.76" cy="28.6" r="0.75" fill="#322f31" />
    <circle cx="9.76" cy="31.39" r="0.75" fill="#322f31" />
    <circle cx="9.76" cy="34.17" r="0.75" fill="#322f31" />
    <circle cx="42.82" cy="34.17" r="0.74" fill="#322f31" />
    <circle cx="9.76" cy="36.96" r="0.75" fill="#322f31" />
    <circle cx="42.82" cy="36.96" r="0.74" fill="#322f31" />
    <circle cx="9.76" cy="39.74" r="0.75" fill="#322f31" />
    <ellipse cx="42.82" cy="39.74" rx="0.74" ry="0.75" fill="#322f31" />
    <circle cx="9.76" cy="42.53" r="0.75" fill="#322f31" />
    <circle cx="12.77" cy="42.53" r="0.75" fill="#322f31" />
    <circle cx="15.77" cy="42.53" r="0.75" fill="#322f31" />
    <ellipse cx="18.78" cy="42.53" rx="0.74" ry="0.75" fill="#322f31" />
    <circle cx="21.78" cy="42.53" r="0.75" fill="#322f31" />
    <circle cx="24.79" cy="42.53" r="0.75" fill="#322f31" />
    <circle cx="27.79" cy="42.53" r="0.75" fill="#322f31" />
    <circle cx="33.81" cy="42.53" r="0.75" fill="#322f31" />
    <circle cx="36.81" cy="42.53" r="0.75" fill="#322f31" />
    <circle cx="39.82" cy="42.53" r="0.74" fill="#322f31" />
    <ellipse cx="42.82" cy="42.53" rx="0.74" ry="0.75" fill="#322f31" />
    <ellipse cx="30.8" cy="42.53" rx="0.74" ry="0.75" fill="#322f31" />
    <circle cx="48.83" cy="42.53" r="0.75" fill="#322f31" />
    <circle cx="0.75" cy="45.31" r="0.75" fill="#322f31" />
    <circle cx="3.75" cy="45.31" r="0.75" fill="#322f31" />
    <path d="M458.74,317.88a0.74,0.74,0,1,1,.75-0.75A0.75,0.75,0,0,1,458.74,317.88Z" transform="translate(-451.99 -271.83)" fill="#322f31" />
    <circle cx="9.76" cy="45.31" r="0.75" fill="#322f31" />
    <circle cx="12.77" cy="45.31" r="0.74" fill="#322f31" />
    <circle cx="15.77" cy="45.31" r="0.75" fill="#322f31" />
    <circle cx="18.78" cy="45.31" r="0.74" fill="#322f31" />
    <circle cx="21.78" cy="45.31" r="0.75" fill="#322f31" />
    <circle cx="24.79" cy="45.31" r="0.75" fill="#322f31" />
    <circle cx="27.79" cy="45.31" r="0.75" fill="#322f31" />
    <circle cx="33.81" cy="45.31" r="0.74" fill="#322f31" />
    <circle cx="36.81" cy="45.31" r="0.75" fill="#322f31" />
    <circle cx="39.82" cy="45.31" r="0.74" fill="#322f31" />
    <circle cx="42.82" cy="45.31" r="0.74" fill="#322f31" />
    <circle cx="45.83" cy="45.31" r="0.74" fill="#322f31" />
    <circle cx="51.84" cy="45.31" r="0.75" fill="#322f31" />
    <circle cx="30.8" cy="45.31" r="0.74" fill="#322f31" />
    <circle cx="48.83" cy="45.31" r="0.74" fill="#322f31" />
    <circle cx="0.75" cy="48.1" r="0.75" fill="#322f31" />
    <circle cx="3.75" cy="48.1" r="0.75" fill="#322f31" />
    <path d="M458.74,320.67a0.75,0.75,0,1,1,.75-0.75A0.75,0.75,0,0,1,458.74,320.67Z" transform="translate(-451.99 -271.83)" fill="#322f31" />
    <circle cx="9.76" cy="48.1" r="0.75" fill="#322f31" />
    <circle cx="12.77" cy="48.1" r="0.75" fill="#322f31" />
    <circle cx="15.77" cy="48.1" r="0.75" fill="#322f31" />
    <ellipse cx="18.78" cy="48.1" rx="0.74" ry="0.75" fill="#322f31" />
    <circle cx="21.78" cy="48.1" r="0.75" fill="#322f31" />
    <circle cx="24.79" cy="48.1" r="0.75" fill="#322f31" />
    <circle cx="27.79" cy="48.1" r="0.75" fill="#322f31" />
    <circle cx="33.81" cy="48.1" r="0.75" fill="#322f31" />
    <circle cx="36.81" cy="48.1" r="0.75" fill="#322f31" />
    <circle cx="39.82" cy="48.1" r="0.74" fill="#322f31" />
    <ellipse cx="42.82" cy="48.1" rx="0.74" ry="0.75" fill="#322f31" />
    <circle cx="45.83" cy="48.1" r="0.75" fill="#322f31" />
    <circle cx="51.84" cy="48.1" r="0.75" fill="#322f31" />
    <ellipse cx="30.8" cy="48.1" rx="0.74" ry="0.75" fill="#322f31" />
    <circle cx="48.83" cy="48.1" r="0.75" fill="#322f31" />
    <path d="M452.74,323.45a0.74,0.74,0,1,1,.74-0.75A0.74,0.74,0,0,1,452.74,323.45Z" transform="translate(-451.99 -271.83)" fill="#322f31" />
    <path d="M455.74,323.45a0.74,0.74,0,1,1,.75-0.75A0.74,0.74,0,0,1,455.74,323.45Z" transform="translate(-451.99 -271.83)" fill="#322f31" />
    <path d="M458.74,323.45a0.74,0.74,0,1,1,.75-0.75A0.74,0.74,0,0,1,458.74,323.45Z" transform="translate(-451.99 -271.83)" fill="#322f31" />
    <path d="M461.75,323.45a0.74,0.74,0,1,1,.74-0.75A0.75,0.75,0,0,1,461.75,323.45Z" transform="translate(-451.99 -271.83)" fill="#322f31" />
    <path d="M464.76,323.45a0.74,0.74,0,1,1,.74-0.75A0.74,0.74,0,0,1,464.76,323.45Z" transform="translate(-451.99 -271.83)" fill="#322f31" />
    <path d="M467.76,323.45a0.74,0.74,0,1,1,.75-0.75A0.74,0.74,0,0,1,467.76,323.45Z" transform="translate(-451.99 -271.83)" fill="#322f31" />
    <path d="M470.76,323.45a0.74,0.74,0,1,1,.74-0.75A0.74,0.74,0,0,1,470.76,323.45Z" transform="translate(-451.99 -271.83)" fill="#322f31" />
    <path d="M473.77,323.45a0.74,0.74,0,1,1,.74-0.75A0.74,0.74,0,0,1,473.77,323.45Z" transform="translate(-451.99 -271.83)" fill="#322f31" />
    <path d="M476.77,323.45a0.74,0.74,0,1,1,.75-0.75A0.74,0.74,0,0,1,476.77,323.45Z" transform="translate(-451.99 -271.83)" fill="#322f31" />
    <path d="M479.78,323.45a0.74,0.74,0,1,1,.75-0.75A0.74,0.74,0,0,1,479.78,323.45Z" transform="translate(-451.99 -271.83)" fill="#322f31" />
    <path d="M485.79,323.45a0.74,0.74,0,1,1,.74-0.75A0.74,0.74,0,0,1,485.79,323.45Z" transform="translate(-451.99 -271.83)" fill="#322f31" />
    <path d="M488.8,323.45a0.74,0.74,0,1,1,.75-0.75A0.74,0.74,0,0,1,488.8,323.45Z" transform="translate(-451.99 -271.83)" fill="#322f31" />
    <path d="M491.8,323.45a0.74,0.74,0,1,1,.74-0.75A0.74,0.74,0,0,1,491.8,323.45Z" transform="translate(-451.99 -271.83)" fill="#322f31" />
    <path d="M494.81,323.45a0.74,0.74,0,1,1,.74-0.75A0.74,0.74,0,0,1,494.81,323.45Z" transform="translate(-451.99 -271.83)" fill="#322f31" />
    <path d="M497.81,323.45a0.74,0.74,0,1,1,.74-0.75A0.75,0.75,0,0,1,497.81,323.45Z" transform="translate(-451.99 -271.83)" fill="#322f31" />
    <path d="M503.82,323.45a0.74,0.74,0,1,1,.75-0.75A0.74,0.74,0,0,1,503.82,323.45Z" transform="translate(-451.99 -271.83)" fill="#322f31" />
    <path d="M482.78,323.45a0.74,0.74,0,1,1,.74-0.75A0.74,0.74,0,0,1,482.78,323.45Z" transform="translate(-451.99 -271.83)" fill="#322f31" />
    <path d="M500.82,323.45a0.74,0.74,0,0,1,0-1.49A0.74,0.74,0,1,1,500.82,323.45Z" transform="translate(-451.99 -271.83)" fill="#322f31" />
    <path d="M514.92,287.15h12.5v3.27h-8.71v5.47h7v3.27h-7v5.62h9.18V308h-13V287.15Z" transform="translate(-451.99 -271.83)" fill="#322f31" />
    <path d="M547.73,297.44l-6.24-10.3h4.33l2.88,5.12c0.65,1.21,1.29,2.56,1.29,2.56H550s0.59-1.32,1.29-2.56l2.91-5.12h4.33l-6.27,10.3,6.5,10.59h-4.23l-3.27-5.62c-0.68-1.21-1.3-2.47-1.3-2.47H550s-0.59,1.27-1.26,2.47L545.46,308h-4.21Z" transform="translate(-451.99 -271.83)" fill="#322f31" />
    <path d="M573.47,287.15h8.07a6.4,6.4,0,0,1,6.65,6.8c0,4.06-2.74,6.89-6.65,6.89h-4.27V308h-3.8V287.15Zm7.36,10.39a3.28,3.28,0,0,0,3.5-3.59,3.23,3.23,0,0,0-3.44-3.53h-3.62v7.12h3.56Z" transform="translate(-451.99 -271.83)" fill="#322f31" />
    <path d="M603.34,287.15h12.5v3.27h-8.71v5.47h7v3.27h-7v5.62h9.18V308h-13V287.15Z" transform="translate(-451.99 -271.83)" fill="#322f31" />
    <path d="M631.82,287.15h6.88a9.32,9.32,0,0,1,3.94.56,5.78,5.78,0,0,1,3.53,5.7,6,6,0,0,1-3.5,5.71v0.06a7.44,7.44,0,0,1,.67,1.09l4.3,7.77h-4.26l-4.12-7.8h-3.65V308h-3.79V287.15Zm7.21,9.8a3.07,3.07,0,0,0,3.3-3.33,2.81,2.81,0,0,0-1.65-2.85,5.28,5.28,0,0,0-2.29-.35h-2.77v6.53H639Z" transform="translate(-451.99 -271.83)" fill="#322f31" />
    <path d="M666.92,290.41h-6.85v-3.27h17.48v3.27h-6.86V308h-3.77V290.41Z" transform="translate(-451.99 -271.83)" fill="#322f31" />
    <path d="M517.76,322.5c1.37,0,2.44-.62,2.44-2.19v-0.7a2.54,2.54,0,0,1,.06-0.52h0a2.36,2.36,0,0,1-2.23,1.29c-1.88,0-3.12-1.49-3.12-3.6s1.16-3.54,3-3.54a2.49,2.49,0,0,1,2.32,1.23h0a0.75,0.75,0,0,1,0-.24v-0.83h0.92v6.84c0,2.23-1.64,3.1-3.37,3.1a5,5,0,0,1-2.29-.57l0.35-.77A4.36,4.36,0,0,0,517.76,322.5Zm0.38-3c1.12,0,2.09-.68,2.09-2.74s-1-2.69-2.22-2.69-2.17,1-2.17,2.67S516.76,319.54,518.14,319.54Z" transform="translate(-451.99 -271.83)" fill="#322f31" />
    <path d="M525.17,313.42h0.93v1.3a2.83,2.83,0,0,1-.05.55h0a2.5,2.5,0,0,1,2.24-1.92,1.61,1.61,0,0,1,.37,0v0.93a1.62,1.62,0,0,0-.35,0c-1.58,0-2.23,1.77-2.23,3.17v3h-0.95v-7Z" transform="translate(-451.99 -271.83)" fill="#322f31" />
    <path d="M534.81,313.25a3.63,3.63,0,0,1,3.71,3.64,3.7,3.7,0,1,1-7.4,0A3.61,3.61,0,0,1,534.81,313.25Zm0,6.48a2.82,2.82,0,0,0,0-5.63A2.82,2.82,0,0,0,534.81,319.74Z" transform="translate(-451.99 -271.83)" fill="#322f31" />
    <path d="M542,313.42h1v4.21c0,1.1.16,2.08,1.52,2.08a2.73,2.73,0,0,0,2.6-2.93v-3.36H548v7H547v-1.1a2.7,2.7,0,0,1,.06-0.56h0a3,3,0,0,1-2.76,1.83c-1.66,0-2.36-.89-2.36-2.72v-4.46Z" transform="translate(-451.99 -271.83)" fill="#322f31" />
    <path d="M552,313.42h0.91v0.74a3.28,3.28,0,0,1,0,.54h0a2.61,2.61,0,0,1,2.44-1.45c1.9,0,3,1.51,3,3.67s-1.31,3.68-3.13,3.68a2.56,2.56,0,0,1-2.31-1.4h0a4.58,4.58,0,0,1,0,.62v3.4H552v-9.8Zm3.15,6.33c1.24,0,2.28-1,2.28-2.81s-0.92-2.82-2.23-2.82-2.27.84-2.27,2.83C552.9,318.36,553.69,319.75,555.13,319.75Z" transform="translate(-451.99 -271.83)" fill="#322f31" />
</svg>
