<svg xmlns="http://www.w3.org/2000/svg" viewBox="0 0 52.6 51.63"><circle cx="0.76" cy="0.76" r="0.75" style="fill:#322f31"/><circle cx="3.76" cy="0.76" r="0.75" style="fill:#322f31"/><path d="M6.75,1.49A0.75,0.75,0,1,1,7.5.74,0.75,0.75,0,0,1,6.75,1.49Z" transform="translate(0.01 0.01)" style="fill:#322f31"/><circle cx="9.77" cy="0.76" r="0.75" style="fill:#322f31"/><circle cx="12.78" cy="0.76" r="0.75" style="fill:#322f31"/><circle cx="15.78" cy="0.76" r="0.75" style="fill:#322f31"/><ellipse cx="18.79" cy="0.76" rx="0.74" ry="0.75" style="fill:#322f31"/><circle cx="21.79" cy="0.76" r="0.75" style="fill:#322f31"/><circle cx="24.8" cy="0.76" r="0.75" style="fill:#322f31"/><circle cx="27.8" cy="0.76" r="0.75" style="fill:#322f31"/><circle cx="33.82" cy="0.76" r="0.75" style="fill:#322f31"/><circle cx="36.82" cy="0.76" r="0.75" style="fill:#322f31"/><ellipse cx="39.83" cy="0.76" rx="0.74" ry="0.75" style="fill:#322f31"/><ellipse cx="42.83" cy="0.76" rx="0.74" ry="0.75" style="fill:#322f31"/><circle cx="45.84" cy="0.76" r="0.75" style="fill:#322f31"/><circle cx="51.85" cy="0.76" r="0.75" style="fill:#322f31"/><ellipse cx="30.81" cy="0.76" rx="0.74" ry="0.75" style="fill:#322f31"/><circle cx="48.84" cy="0.76" r="0.75" style="fill:#322f31"/><circle cx="0.76" cy="3.55" r="0.75" style="fill:#322f31"/><circle cx="3.76" cy="3.55" r="0.75" style="fill:#322f31"/><path d="M6.75,4.28A0.74,0.74,0,1,1,7.5,3.54,0.75,0.75,0,0,1,6.75,4.28Z" transform="translate(0.01 0.01)" style="fill:#322f31"/><circle cx="9.77" cy="3.55" r="0.75" style="fill:#322f31"/><circle cx="12.78" cy="3.55" r="0.74" style="fill:#322f31"/><circle cx="15.78" cy="3.55" r="0.75" style="fill:#322f31"/><circle cx="18.79" cy="3.55" r="0.74" style="fill:#322f31"/><circle cx="21.79" cy="3.55" r="0.75" style="fill:#322f31"/><circle cx="24.8" cy="3.55" r="0.75" style="fill:#322f31"/><circle cx="27.8" cy="3.55" r="0.75" style="fill:#322f31"/><circle cx="33.82" cy="3.55" r="0.74" style="fill:#322f31"/><circle cx="36.82" cy="3.55" r="0.75" style="fill:#322f31"/><circle cx="39.83" cy="3.55" r="0.74" style="fill:#322f31"/><circle cx="42.83" cy="3.55" r="0.74" style="fill:#322f31"/><circle cx="45.84" cy="3.55" r="0.74" style="fill:#322f31"/><circle cx="51.85" cy="3.55" r="0.75" style="fill:#322f31"/><circle cx="30.81" cy="3.55" r="0.74" style="fill:#322f31"/><circle cx="48.84" cy="3.55" r="0.74" style="fill:#322f31"/><path d="M0.75,7.06A0.75,0.75,0,1,1,1.49,6.3h0a0.74,0.74,0,0,1-.73.75h0Z" transform="translate(0.01 0.01)" style="fill:#322f31"/><path d="M3.75,7.06A0.75,0.75,0,1,1,4.5,6.31a0.74,0.74,0,0,1-.73.75h0Z" transform="translate(0.01 0.01)" style="fill:#322f31"/><path d="M6.75,7.06A0.75,0.75,0,1,1,7.5,6.31a0.74,0.74,0,0,1-.73.75h0Z" transform="translate(0.01 0.01)" style="fill:#322f31"/><path d="M9.76,7.06A0.75,0.75,0,1,1,10.5,6.3h0A0.75,0.75,0,0,1,9.76,7.06Z" transform="translate(0.01 0.01)" style="fill:#322f31"/><path d="M12.77,7.06a0.75,0.75,0,1,1,.74-0.76h0a0.74,0.74,0,0,1-.73.75h0Z" transform="translate(0.01 0.01)" style="fill:#322f31"/><path d="M15.77,7.06a0.75,0.75,0,1,1,.75-0.75A0.75,0.75,0,0,1,15.77,7.06Z" transform="translate(0.01 0.01)" style="fill:#322f31"/><path d="M18.77,7.06a0.75,0.75,0,1,1,.74-0.76h0a0.74,0.74,0,0,1-.73.75h0Z" transform="translate(0.01 0.01)" style="fill:#322f31"/><path d="M21.78,7.06a0.75,0.75,0,1,1,.74-0.76h0A0.75,0.75,0,0,1,21.78,7.06Z" transform="translate(0.01 0.01)" style="fill:#322f31"/><path d="M24.78,7.06a0.75,0.75,0,1,1,.75-0.75,0.74,0.74,0,0,1-.73.75h0Z" transform="translate(0.01 0.01)" style="fill:#322f31"/><path d="M27.79,7.06a0.75,0.75,0,1,1,.75-0.75,0.74,0.74,0,0,1-.73.75h0Z" transform="translate(0.01 0.01)" style="fill:#322f31"/><path d="M33.8,7.06a0.75,0.75,0,1,1,.74-0.76h0a0.74,0.74,0,0,1-.73.75h0Z" transform="translate(0.01 0.01)" style="fill:#322f31"/><path d="M36.81,7.06a0.75,0.75,0,1,1,.75-0.75,0.74,0.74,0,0,1-.73.75h0Z" transform="translate(0.01 0.01)" style="fill:#322f31"/><path d="M39.81,7.06a0.75,0.75,0,1,1,.74-0.76h0a0.74,0.74,0,0,1-.73.75h0Z" transform="translate(0.01 0.01)" style="fill:#322f31"/><path d="M42.82,7.06a0.75,0.75,0,1,1,.74-0.76h0a0.74,0.74,0,0,1-.73.75h0Z" transform="translate(0.01 0.01)" style="fill:#322f31"/><path d="M45.82,7.06a0.75,0.75,0,1,1,.74-0.76h0A0.75,0.75,0,0,1,45.82,7.06Z" transform="translate(0.01 0.01)" style="fill:#322f31"/><path d="M51.83,7.06a0.75,0.75,0,1,1,.75-0.75,0.74,0.74,0,0,1-.73.75h0Z" transform="translate(0.01 0.01)" style="fill:#322f31"/><path d="M30.79,7.06a0.75,0.75,0,1,1,.74-0.76h0a0.74,0.74,0,0,1-.73.75h0Z" transform="translate(0.01 0.01)" style="fill:#322f31"/><path d="M48.83,7.06a0.75,0.75,0,1,1,.75-0.75,0.74,0.74,0,0,1-.73.75h0Z" transform="translate(0.01 0.01)" style="fill:#322f31"/><circle cx="0.76" cy="9.12" r="0.75" style="fill:#322f31"/><circle cx="3.76" cy="9.12" r="0.75" style="fill:#322f31"/><path d="M6.75,9.85A0.74,0.74,0,1,1,7.5,9.11a0.74,0.74,0,0,1-.75.74h0Z" transform="translate(0.01 0.01)" style="fill:#322f31"/><circle cx="45.84" cy="9.12" r="0.74" style="fill:#322f31"/><circle cx="51.85" cy="9.12" r="0.75" style="fill:#322f31"/><circle cx="48.84" cy="9.12" r="0.74" style="fill:#322f31"/><circle cx="0.76" cy="11.9" r="0.75" style="fill:#322f31"/><circle cx="3.76" cy="11.9" r="0.75" style="fill:#322f31"/><path d="M6.75,12.63a0.74,0.74,0,1,1,.75-0.75A0.75,0.75,0,0,1,6.75,12.63Z" transform="translate(0.01 0.01)" style="fill:#322f31"/><circle cx="45.84" cy="11.9" r="0.74" style="fill:#322f31"/><circle cx="51.85" cy="11.9" r="0.75" style="fill:#322f31"/><circle cx="48.84" cy="11.9" r="0.74" style="fill:#322f31"/><path d="M0.75,15.41a0.74,0.74,0,1,1,.74-0.74h0A0.74,0.74,0,0,1,.75,15.41Z" transform="translate(0.01 0.01)" style="fill:#322f31"/><path d="M3.75,15.41a0.74,0.74,0,1,1,.75-0.74,0.74,0.74,0,0,1-.75.74h0Z" transform="translate(0.01 0.01)" style="fill:#322f31"/><path d="M6.75,15.41a0.74,0.74,0,1,1,.75-0.74,0.74,0.74,0,0,1-.75.74h0Z" transform="translate(0.01 0.01)" style="fill:#322f31"/><path d="M45.82,15.41a0.74,0.74,0,1,1,.74-0.74h0A0.75,0.75,0,0,1,45.82,15.41Z" transform="translate(0.01 0.01)" style="fill:#322f31"/><path d="M51.83,15.41a0.74,0.74,0,1,1,.75-0.74,0.74,0.74,0,0,1-.75.74h0Z" transform="translate(0.01 0.01)" style="fill:#322f31"/><path d="M48.83,15.41a0.74,0.74,0,1,1,.74-0.74A0.75,0.75,0,0,1,48.83,15.41Z" transform="translate(0.01 0.01)" style="fill:#322f31"/><circle cx="0.76" cy="17.47" r="0.75" style="fill:#322f31"/><circle cx="3.76" cy="17.47" r="0.75" style="fill:#322f31"/><path d="M6.75,18.17a0.74,0.74,0,1,1,.75-0.75A0.75,0.75,0,0,1,6.75,18.17Z" transform="translate(0.01 0.01)" style="fill:#322f31"/><circle cx="0.76" cy="20.26" r="0.75" style="fill:#322f31"/><circle cx="3.76" cy="20.26" r="0.75" style="fill:#322f31"/><path d="M6.75,21a0.75,0.75,0,1,1,.75-0.75A0.75,0.75,0,0,1,6.75,21Z" transform="translate(0.01 0.01)" style="fill:#322f31"/><circle cx="45.84" cy="20.26" r="0.75" style="fill:#322f31"/><circle cx="48.84" cy="20.26" r="0.75" style="fill:#322f31"/><circle cx="0.76" cy="23.04" r="0.75" style="fill:#322f31"/><circle cx="3.76" cy="23.04" r="0.75" style="fill:#322f31"/><path d="M6.75,23.77A0.75,0.75,0,1,1,7.5,23,0.75,0.75,0,0,1,6.75,23.77Z" transform="translate(0.01 0.01)" style="fill:#322f31"/><circle cx="45.84" cy="23.04" r="0.75" style="fill:#322f31"/><circle cx="48.84" cy="23.04" r="0.75" style="fill:#322f31"/><circle cx="0.76" cy="25.83" r="0.75" style="fill:#322f31"/><circle cx="3.76" cy="25.83" r="0.75" style="fill:#322f31"/><path d="M6.75,26.56a0.75,0.75,0,1,1,.75-0.75A0.75,0.75,0,0,1,6.75,26.56Z" transform="translate(0.01 0.01)" style="fill:#322f31"/><circle cx="45.84" cy="25.83" r="0.75" style="fill:#322f31"/><circle cx="48.84" cy="25.83" r="0.75" style="fill:#322f31"/><circle cx="0.76" cy="28.61" r="0.75" style="fill:#322f31"/><circle cx="3.76" cy="28.61" r="0.75" style="fill:#322f31"/><path d="M6.75,29.34a0.75,0.75,0,1,1,.75-0.75h0a0.74,0.74,0,0,1-.74.74h0Z" transform="translate(0.01 0.01)" style="fill:#322f31"/><circle cx="45.84" cy="28.61" r="0.75" style="fill:#322f31"/><circle cx="48.84" cy="28.61" r="0.75" style="fill:#322f31"/><circle cx="0.76" cy="31.4" r="0.75" style="fill:#322f31"/><circle cx="3.76" cy="31.4" r="0.75" style="fill:#322f31"/><path d="M6.75,32.17a0.75,0.75,0,1,1,.75-0.75h0a0.74,0.74,0,0,1-.74.74h0Z" transform="translate(0.01 0.01)" style="fill:#322f31"/><circle cx="45.84" cy="31.4" r="0.75" style="fill:#322f31"/><circle cx="48.84" cy="31.4" r="0.75" style="fill:#322f31"/><circle cx="0.76" cy="34.18" r="0.75" style="fill:#322f31"/><circle cx="3.76" cy="34.18" r="0.75" style="fill:#322f31"/><path d="M6.75,34.91a0.75,0.75,0,1,1,.75-0.75h0a0.74,0.74,0,0,1-.74.74h0Z" transform="translate(0.01 0.01)" style="fill:#322f31"/><circle cx="45.84" cy="34.18" r="0.75" style="fill:#322f31"/><circle cx="45.84" cy="17.47" r="0.74" style="fill:#322f31"/><circle cx="51.85" cy="17.47" r="0.75" style="fill:#322f31"/><circle cx="48.84" cy="17.47" r="0.74" style="fill:#322f31"/><circle cx="51.85" cy="20.26" r="0.75" style="fill:#322f31"/><circle cx="51.85" cy="23.04" r="0.75" style="fill:#322f31"/><circle cx="51.85" cy="25.83" r="0.75" style="fill:#322f31"/><circle cx="51.85" cy="28.61" r="0.75" style="fill:#322f31"/><circle cx="51.85" cy="31.4" r="0.75" style="fill:#322f31"/><circle cx="51.85" cy="34.18" r="0.75" style="fill:#322f31"/><circle cx="18.15" cy="18.87" r="0.74" style="fill:#322f31"/><circle cx="18.15" cy="21.65" r="0.75" style="fill:#322f31"/><circle cx="18.15" cy="24.44" r="0.74" style="fill:#322f31"/><circle cx="18.15" cy="27.22" r="0.75" style="fill:#322f31"/><circle cx="18.15" cy="30.01" r="0.75" style="fill:#322f31"/><circle cx="18.15" cy="32.79" r="0.75" style="fill:#322f31"/><path d="M18.14,36.31a0.75,0.75,0,1,1,.74-0.76h0a0.74,0.74,0,0,1-.73.75h0Z" transform="translate(0.01 0.01)" style="fill:#322f31"/><circle cx="18.15" cy="16.08" r="0.75" style="fill:#322f31"/><circle cx="15.14" cy="18.87" r="0.75" style="fill:#322f31"/><circle cx="15.14" cy="21.65" r="0.75" style="fill:#322f31"/><circle cx="15.14" cy="24.44" r="0.74" style="fill:#322f31"/><circle cx="15.14" cy="27.22" r="0.75" style="fill:#322f31"/><circle cx="15.14" cy="30.01" r="0.75" style="fill:#322f31"/><circle cx="15.14" cy="32.79" r="0.75" style="fill:#322f31"/><path d="M15.13,36.31a0.75,0.75,0,1,1,.74-0.76h0a0.74,0.74,0,0,1-.73.75h0Z" transform="translate(0.01 0.01)" style="fill:#322f31"/><path d="M15.13,16.81a0.75,0.75,0,1,1,.74-0.76h0A0.75,0.75,0,0,1,15.13,16.81Z" transform="translate(0.01 0.01)" style="fill:#322f31"/><circle cx="25.44" cy="18.87" r="0.74" style="fill:#322f31"/><circle cx="34.45" cy="18.87" r="0.75" style="fill:#322f31"/><circle cx="37.46" cy="18.87" r="0.74" style="fill:#322f31"/><circle cx="22.43" cy="18.87" r="0.74" style="fill:#322f31"/><circle cx="31.45" cy="18.87" r="0.75" style="fill:#322f31"/><circle cx="28.44" cy="18.87" r="0.75" style="fill:#322f31"/><circle cx="25.44" cy="16.08" r="0.75" style="fill:#322f31"/><circle cx="34.45" cy="16.08" r="0.75" style="fill:#322f31"/><circle cx="37.46" cy="16.08" r="0.74" style="fill:#322f31"/><circle cx="22.43" cy="16.08" r="0.75" style="fill:#322f31"/><circle cx="31.45" cy="16.08" r="0.75" style="fill:#322f31"/><circle cx="28.44" cy="16.08" r="0.75" style="fill:#322f31"/><circle cx="28.44" cy="21.65" r="0.75" style="fill:#322f31"/><circle cx="28.44" cy="24.44" r="0.75" style="fill:#322f31"/><circle cx="28.44" cy="27.22" r="0.75" style="fill:#322f31"/><circle cx="28.44" cy="30.01" r="0.75" style="fill:#322f31"/><circle cx="28.44" cy="32.79" r="0.75" style="fill:#322f31"/><path d="M28.43,36.31a0.75,0.75,0,1,1,.75-0.75A0.75,0.75,0,0,1,28.43,36.31Z" transform="translate(0.01 0.01)" style="fill:#322f31"/><circle cx="31.45" cy="21.65" r="0.75" style="fill:#322f31"/><circle cx="31.45" cy="24.44" r="0.74" style="fill:#322f31"/><circle cx="31.45" cy="27.22" r="0.75" style="fill:#322f31"/><circle cx="31.45" cy="30.01" r="0.75" style="fill:#322f31"/><circle cx="31.45" cy="32.79" r="0.75" style="fill:#322f31"/><path d="M31.43,36.31a0.75,0.75,0,1,1,.74-0.76h0a0.74,0.74,0,0,1-.73.75h0Z" transform="translate(0.01 0.01)" style="fill:#322f31"/><circle cx="48.84" cy="34.18" r="0.75" style="fill:#322f31"/><circle cx="0.76" cy="36.97" r="0.75" style="fill:#322f31"/><circle cx="3.76" cy="36.97" r="0.75" style="fill:#322f31"/><path d="M6.75,37.7A0.75,0.75,0,1,1,7.5,37,0.75,0.75,0,0,1,6.75,37.7Z" transform="translate(0.01 0.01)" style="fill:#322f31"/><circle cx="45.84" cy="36.97" r="0.75" style="fill:#322f31"/><circle cx="51.85" cy="36.97" r="0.75" style="fill:#322f31"/><circle cx="48.84" cy="36.97" r="0.75" style="fill:#322f31"/><circle cx="0.76" cy="39.75" r="0.75" style="fill:#322f31"/><circle cx="3.76" cy="39.75" r="0.75" style="fill:#322f31"/><path d="M6.75,40.49a0.75,0.75,0,1,1,.75-0.75A0.75,0.75,0,0,1,6.75,40.49Z" transform="translate(0.01 0.01)" style="fill:#322f31"/><circle cx="45.84" cy="39.75" r="0.75" style="fill:#322f31"/><circle cx="51.85" cy="39.75" r="0.75" style="fill:#322f31"/><circle cx="48.84" cy="39.75" r="0.75" style="fill:#322f31"/><circle cx="0.76" cy="42.54" r="0.75" style="fill:#322f31"/><circle cx="3.76" cy="42.54" r="0.75" style="fill:#322f31"/><path d="M6.75,43.27a0.75,0.75,0,1,1,.75-0.75h0A0.75,0.75,0,0,1,6.75,43.27Z" transform="translate(0.01 0.01)" style="fill:#322f31"/><circle cx="45.84" cy="42.54" r="0.75" style="fill:#322f31"/><circle cx="51.85" cy="42.54" r="0.75" style="fill:#322f31"/><circle cx="9.77" cy="9.12" r="0.75" style="fill:#322f31"/><circle cx="12.78" cy="9.12" r="0.74" style="fill:#322f31"/><circle cx="15.78" cy="9.12" r="0.75" style="fill:#322f31"/><circle cx="18.79" cy="9.12" r="0.74" style="fill:#322f31"/><circle cx="21.79" cy="9.12" r="0.75" style="fill:#322f31"/><circle cx="24.8" cy="9.12" r="0.75" style="fill:#322f31"/><circle cx="27.8" cy="9.12" r="0.75" style="fill:#322f31"/><circle cx="33.82" cy="9.12" r="0.74" style="fill:#322f31"/><circle cx="36.82" cy="9.12" r="0.75" style="fill:#322f31"/><circle cx="39.83" cy="9.12" r="0.74" style="fill:#322f31"/><circle cx="42.83" cy="9.12" r="0.74" style="fill:#322f31"/><circle cx="30.81" cy="9.12" r="0.74" style="fill:#322f31"/><circle cx="9.77" cy="11.9" r="0.75" style="fill:#322f31"/><circle cx="42.83" cy="11.9" r="0.74" style="fill:#322f31"/><path d="M9.76,15.41a0.74,0.74,0,1,1,.74-0.74h0A0.75,0.75,0,0,1,9.76,15.41Z" transform="translate(0.01 0.01)" style="fill:#322f31"/><path d="M42.82,15.41a0.74,0.74,0,1,1,.74-0.74h0A0.74,0.74,0,0,1,42.82,15.41Z" transform="translate(0.01 0.01)" style="fill:#322f31"/><circle cx="42.83" cy="17.47" r="0.74" style="fill:#322f31"/><ellipse cx="42.83" cy="20.26" rx="0.74" ry="0.75" style="fill:#322f31"/><circle cx="42.83" cy="23.04" r="0.74" style="fill:#322f31"/><circle cx="42.83" cy="25.83" r="0.74" style="fill:#322f31"/><circle cx="42.83" cy="28.61" r="0.74" style="fill:#322f31"/><circle cx="42.83" cy="31.4" r="0.74" style="fill:#322f31"/><circle cx="9.77" cy="17.47" r="0.75" style="fill:#322f31"/><circle cx="9.77" cy="20.26" r="0.75" style="fill:#322f31"/><circle cx="9.77" cy="23.04" r="0.75" style="fill:#322f31"/><circle cx="9.77" cy="25.83" r="0.75" style="fill:#322f31"/><circle cx="9.77" cy="28.61" r="0.75" style="fill:#322f31"/><circle cx="9.77" cy="31.4" r="0.75" style="fill:#322f31"/><circle cx="9.77" cy="34.18" r="0.75" style="fill:#322f31"/><circle cx="42.83" cy="34.18" r="0.74" style="fill:#322f31"/><circle cx="9.77" cy="36.97" r="0.75" style="fill:#322f31"/><circle cx="42.83" cy="36.97" r="0.74" style="fill:#322f31"/><circle cx="9.77" cy="39.75" r="0.75" style="fill:#322f31"/><ellipse cx="42.83" cy="39.75" rx="0.74" ry="0.75" style="fill:#322f31"/><circle cx="9.77" cy="42.54" r="0.75" style="fill:#322f31"/><circle cx="12.78" cy="42.54" r="0.75" style="fill:#322f31"/><circle cx="15.78" cy="42.54" r="0.75" style="fill:#322f31"/><ellipse cx="18.79" cy="42.54" rx="0.74" ry="0.75" style="fill:#322f31"/><circle cx="21.79" cy="42.54" r="0.75" style="fill:#322f31"/><circle cx="24.8" cy="42.54" r="0.75" style="fill:#322f31"/><circle cx="27.8" cy="42.54" r="0.75" style="fill:#322f31"/><circle cx="33.82" cy="42.54" r="0.75" style="fill:#322f31"/><circle cx="36.82" cy="42.54" r="0.75" style="fill:#322f31"/><circle cx="39.83" cy="42.54" r="0.74" style="fill:#322f31"/><ellipse cx="42.83" cy="42.54" rx="0.74" ry="0.75" style="fill:#322f31"/><ellipse cx="30.81" cy="42.54" rx="0.74" ry="0.75" style="fill:#322f31"/><circle cx="48.84" cy="42.54" r="0.75" style="fill:#322f31"/><circle cx="0.76" cy="45.32" r="0.75" style="fill:#322f31"/><circle cx="3.76" cy="45.32" r="0.75" style="fill:#322f31"/><path d="M6.75,46.05A0.74,0.74,0,1,1,7.5,45.3,0.75,0.75,0,0,1,6.75,46.05Z" transform="translate(0.01 0.01)" style="fill:#322f31"/><circle cx="9.77" cy="45.32" r="0.75" style="fill:#322f31"/><circle cx="12.78" cy="45.32" r="0.74" style="fill:#322f31"/><circle cx="15.78" cy="45.32" r="0.75" style="fill:#322f31"/><circle cx="18.79" cy="45.32" r="0.74" style="fill:#322f31"/><circle cx="21.79" cy="45.32" r="0.75" style="fill:#322f31"/><circle cx="24.8" cy="45.32" r="0.75" style="fill:#322f31"/><circle cx="27.8" cy="45.32" r="0.75" style="fill:#322f31"/><circle cx="33.82" cy="45.32" r="0.74" style="fill:#322f31"/><circle cx="36.82" cy="45.32" r="0.75" style="fill:#322f31"/><circle cx="39.83" cy="45.32" r="0.74" style="fill:#322f31"/><circle cx="42.83" cy="45.32" r="0.74" style="fill:#322f31"/><circle cx="45.84" cy="45.32" r="0.74" style="fill:#322f31"/><circle cx="51.85" cy="45.32" r="0.75" style="fill:#322f31"/><circle cx="30.81" cy="45.32" r="0.74" style="fill:#322f31"/><circle cx="48.84" cy="45.32" r="0.74" style="fill:#322f31"/><circle cx="0.76" cy="48.11" r="0.75" style="fill:#322f31"/><circle cx="3.76" cy="48.11" r="0.75" style="fill:#322f31"/><path d="M6.75,48.84a0.75,0.75,0,1,1,.75-0.75A0.75,0.75,0,0,1,6.75,48.84Z" transform="translate(0.01 0.01)" style="fill:#322f31"/><circle cx="9.77" cy="48.11" r="0.75" style="fill:#322f31"/><circle cx="12.78" cy="48.11" r="0.75" style="fill:#322f31"/><circle cx="15.78" cy="48.11" r="0.75" style="fill:#322f31"/><ellipse cx="18.79" cy="48.11" rx="0.74" ry="0.75" style="fill:#322f31"/><circle cx="21.79" cy="48.11" r="0.75" style="fill:#322f31"/><circle cx="24.8" cy="48.11" r="0.75" style="fill:#322f31"/><circle cx="27.8" cy="48.11" r="0.75" style="fill:#322f31"/><circle cx="33.82" cy="48.11" r="0.75" style="fill:#322f31"/><circle cx="36.82" cy="48.11" r="0.75" style="fill:#322f31"/><circle cx="39.83" cy="48.11" r="0.74" style="fill:#322f31"/><ellipse cx="42.83" cy="48.11" rx="0.74" ry="0.75" style="fill:#322f31"/><circle cx="45.84" cy="48.11" r="0.75" style="fill:#322f31"/><circle cx="51.85" cy="48.11" r="0.75" style="fill:#322f31"/><ellipse cx="30.81" cy="48.11" rx="0.74" ry="0.75" style="fill:#322f31"/><circle cx="48.84" cy="48.11" r="0.75" style="fill:#322f31"/><path d="M0.75,51.62a0.74,0.74,0,1,1,.74-0.75,0.74,0.74,0,0,1-.74.75h0Z" transform="translate(0.01 0.01)" style="fill:#322f31"/><path d="M3.75,51.62a0.74,0.74,0,1,1,.75-0.75,0.74,0.74,0,0,1-.75.75h0Z" transform="translate(0.01 0.01)" style="fill:#322f31"/><path d="M6.75,51.62a0.74,0.74,0,1,1,.75-0.75,0.74,0.74,0,0,1-.75.75h0Z" transform="translate(0.01 0.01)" style="fill:#322f31"/><path d="M9.76,51.62a0.74,0.74,0,1,1,.74-0.75A0.75,0.75,0,0,1,9.76,51.62Z" transform="translate(0.01 0.01)" style="fill:#322f31"/><path d="M12.77,51.62a0.74,0.74,0,1,1,.74-0.75,0.74,0.74,0,0,1-.74.75h0Z" transform="translate(0.01 0.01)" style="fill:#322f31"/><path d="M15.77,51.62a0.74,0.74,0,1,1,.75-0.75,0.74,0.74,0,0,1-.75.75h0Z" transform="translate(0.01 0.01)" style="fill:#322f31"/><path d="M18.77,51.62a0.74,0.74,0,1,1,.74-0.75,0.74,0.74,0,0,1-.74.75h0Z" transform="translate(0.01 0.01)" style="fill:#322f31"/><path d="M21.78,51.62a0.74,0.74,0,1,1,.74-0.75,0.74,0.74,0,0,1-.74.75h0Z" transform="translate(0.01 0.01)" style="fill:#322f31"/><path d="M24.78,51.62a0.74,0.74,0,1,1,.75-0.75,0.74,0.74,0,0,1-.75.75h0Z" transform="translate(0.01 0.01)" style="fill:#322f31"/><path d="M27.79,51.62a0.74,0.74,0,1,1,.75-0.75,0.74,0.74,0,0,1-.75.75h0Z" transform="translate(0.01 0.01)" style="fill:#322f31"/><path d="M33.8,51.62a0.74,0.74,0,1,1,.74-0.75,0.74,0.74,0,0,1-.74.75h0Z" transform="translate(0.01 0.01)" style="fill:#322f31"/><path d="M36.81,51.62a0.74,0.74,0,1,1,.75-0.75,0.74,0.74,0,0,1-.75.75h0Z" transform="translate(0.01 0.01)" style="fill:#322f31"/><path d="M39.81,51.62a0.74,0.74,0,1,1,.74-0.75,0.74,0.74,0,0,1-.74.75h0Z" transform="translate(0.01 0.01)" style="fill:#322f31"/><path d="M42.82,51.62a0.74,0.74,0,1,1,.74-0.75,0.74,0.74,0,0,1-.74.75h0Z" transform="translate(0.01 0.01)" style="fill:#322f31"/><path d="M45.82,51.62a0.74,0.74,0,1,1,.74-0.75A0.75,0.75,0,0,1,45.82,51.62Z" transform="translate(0.01 0.01)" style="fill:#322f31"/><path d="M51.83,51.62a0.74,0.74,0,1,1,.75-0.75,0.74,0.74,0,0,1-.75.75h0Z" transform="translate(0.01 0.01)" style="fill:#322f31"/><path d="M30.79,51.62a0.74,0.74,0,1,1,.74-0.75,0.74,0.74,0,0,1-.74.75h0Z" transform="translate(0.01 0.01)" style="fill:#322f31"/><path d="M48.83,51.62a0.74,0.74,0,1,1,.74-0.74A0.75,0.75,0,0,1,48.83,51.62Z" transform="translate(0.01 0.01)" style="fill:#322f31"/></svg>