<svg version="1.0" xmlns="http://www.w3.org/2000/svg"
 width="345.000000pt" height="274.000000pt" viewBox="0 0 345.000000 274.000000"
 preserveAspectRatio="xMidYMid meet">

<g transform="translate(0.000000,274.000000) scale(0.100000,-0.100000)"
fill="#000000" stroke="none">
<path d="M1225 2703 c-659 -31 -809 -43 -870 -73 -128 -62 -215 -263 -264
-609 -43 -299 -53 -708 -26 -1061 34 -439 90 -651 204 -773 83 -89 127 -101
441 -122 445 -30 998 -40 1428 -27 379 12 791 34 877 48 131 21 221 128 289
342 57 181 83 400 92 766 16 650 -56 1155 -191 1338 -47 64 -91 95 -161 112
-66 17 -375 40 -733 56 -206 9 -922 11 -1086 3z m1190 -193 c310 -16 560 -37
584 -50 85 -45 159 -287 190 -620 30 -314 23 -855 -14 -1104 -31 -207 -96
-390 -157 -441 -33 -28 -49 -30 -358 -51 -573 -40 -1902 -23 -2157 27 -88 17
-132 75 -178 236 -34 117 -51 229 -70 463 -54 687 35 1384 189 1485 27 18 231
37 551 53 247 13 1176 14 1420 2z"/>
<path d="M1390 1376 c0 -410 3 -746 6 -746 12 0 273 190 579 420 397 300 415
313 414 325 0 9 -968 735 -990 743 -5 2 -9 -303 -9 -742z"/>
</g>
</svg>
