<?xml version="1.0" standalone="no"?>
<!DOCTYPE svg PUBLIC "-//W3C//DTD SVG 20010904//EN"
 "http://www.w3.org/TR/2001/REC-SVG-20010904/DTD/svg10.dtd">
<svg version="1.0" xmlns="http://www.w3.org/2000/svg"
 width="498.000000pt" height="244.000000pt" viewBox="0 0 498.000000 244.000000"
 preserveAspectRatio="xMidYMid meet">

<g transform="translate(0.000000,244.000000) scale(0.100000,-0.100000)"
fill="#000000" stroke="none">
<path d="M370 2311 c-84 -26 -159 -90 -201 -171 l-24 -45 0 -875 c0 -874 0
-875 21 -921 26 -57 88 -120 146 -151 l43 -23 2124 -3 2124 -2 51 23 c69 32
116 75 152 139 l29 53 0 880 0 880 -23 47 c-30 60 -89 119 -150 149 l-47 24
-2110 2 c-1160 1 -2121 -2 -2135 -6z m4230 -172 c21 -12 47 -38 59 -59 21 -38
21 -41 21 -867 l0 -830 -29 -40 c-53 -74 129 -68 -2167 -68 l-2070 0 -41 27
c-77 51 -73 -4 -73 921 l0 824 23 34 c12 18 38 44 56 56 l34 23 2075 0 2074 0
38 -21z"/>
<path d="M1166 1548 c-4 -105 -4 -341 0 -523 l7 -332 88 -2 c48 -1 99 1 113 5
l26 6 0 144 0 144 128 0 c259 1 374 55 433 207 32 84 32 243 -1 328 -30 79
-96 145 -172 173 -91 34 -168 42 -399 42 l-216 0 -7 -192z m503 -61 c67 -34
91 -143 52 -231 -28 -64 -72 -83 -214 -92 l-107 -7 0 172 0 171 123 0 c77 0
131 -5 146 -13z"/>
<path d="M2090 1213 l0 -526 208 6 c326 10 454 42 560 141 232 217 167 713
-111 845 -103 49 -189 61 -437 61 l-220 0 0 -527z m475 276 c92 -28 166 -100
191 -184 29 -102 3 -224 -62 -289 -59 -59 -187 -93 -306 -81 l-68 7 0 278 c0
213 3 280 13 283 33 14 169 6 232 -14z"/>
<path d="M3120 1217 l0 -524 86 -2 c47 -1 101 1 120 5 l34 6 0 199 0 199 230
0 230 0 0 90 0 90 -229 0 -229 0 -4 77 c-2 42 -2 92 0 110 l4 33 229 0 229 0
0 98 c0 53 -3 107 -6 120 l-6 22 -344 0 -344 0 0 -523z"/>
</g>
</svg>
