<svg id="mainPageDecor" version="1.1" xmlns="http://www.w3.org/2000/svg" viewbox="0 6 906 564">

<g id="neuralMesh">
			<g id="neuralMeshLeft">
				<g>
					<path opacity="0.25" enable-background="new    " d="M-4.261,467.349l16.715-11.479c-0.138-0.158-0.268-0.324-0.386-0.5
						l-16.682,11.458L-4.261,467.349z"/>
					<path opacity="0.25" enable-background="new    " d="M3.922,414.123l11.366,32.835c0.205-0.052,0.413-0.093,0.627-0.119
						L4.52,413.917L3.922,414.123z"/>
					<path opacity="0.25" enable-background="new    " d="M431.974,499.304c-1.619,0-3.047,0.76-3.996,1.924l-134.389-78.539
						l27.342-71.853l-0.591-0.225l-27.303,71.753l-37.418-21.868c0.516-0.805,0.824-1.756,0.824-2.781
						c0-2.857-2.317-5.174-5.175-5.174c-0.604,0-1.172,0.123-1.709,0.313L193.62,275.565L170.568,243.3l32.801-29.769l39.646,88.771
						l-8.038-118.308l-31.389,28.484l-27.001-60.459l51.189-41.981l-0.4-0.488l-51.056,41.873L113.777,11.385l0.073-1.55
						l-0.681,1.475L42.523,164.644L22.248,13.569l-0.627,0.085L42.03,165.715L3.104,250.197l39.021,11.283l-14.501,11.893
						L2.522,251.142l19.364,26.939L4.235,292.558l0.399,0.487l17.619-14.45l14.314,19.915L4.186,308.539l0.188,0.604l32.586-10.094
						l25.569,35.576c-1.039,0.858-1.714,2.143-1.714,3.596c0,0.163,0.031,0.315,0.048,0.476L5.097,348.26l0.105,0.622l55.755-9.561
						c0.056,0.23,0.12,0.457,0.208,0.672L4.141,367.933l0.277,0.564l57.039-27.941c0.46,0.795,1.141,1.437,1.965,1.849
						L17.587,446.988c0.2,0.069,0.415,0.121,0.604,0.213l45.813-104.558c0.368,0.125,0.758,0.204,1.16,0.233l-0.299,71.558
						l-55.84,61.554l7.181-18.225c-0.201-0.067-0.396-0.148-0.586-0.238l-7.796,19.787l-0.719,1.819l-8.461,21.44l0.587,0.232
						l8.658-21.936L64.678,459.9l-0.11,26.447l-56.748-7.101l24.966,49.861H3.545v0.631h29.557l29.915,59.746
						c-0.414,0.699-0.668,1.506-0.668,2.377c0,2.415,1.834,4.382,4.181,4.639l0.052,0.104l0.164-0.082
						c0.1,0.007,0.192,0.029,0.292,0.029c2.589,0,4.689-2.101,4.689-4.689c0-1.518-0.735-2.854-1.855-3.713l48.6-58.41h19.143
						l-11.572,61.769l-9.951,4.209l0.246,0.58l9.565-4.047l-0.692,3.698l0.604,0.173l1.792-4.591l31.778-13.44l2.659,17.964
						l0.625-0.095l-2.684-18.123l83.839-35.461c0.755,1.01,1.948,1.67,3.305,1.67c2.262,0,4.095-1.814,4.137-4.064l175.616-34.725
						c0.38,2.483,2.506,4.395,5.095,4.395c2.856,0,5.175-2.316,5.175-5.174C437.15,501.619,434.83,499.304,431.974,499.304z
						 M234.436,185.339l7.711,113.471l-38.285-85.723L234.436,185.339z M64.143,587.749l-0.105,0.483
						c-0.375,0.254-0.319,0.32-0.605,0.67L33.809,529.74h30.578L64.143,587.749z M64.389,529.109H33.49L8.912,480.021l55.651,6.963
						L64.389,529.109z M193.074,275.888L248.978,393.1c-1.298,0.646-2.275,1.812-2.672,3.235l-75.729-24.48l21.619-97.196
						L193.074,275.888z M54.291,252.319l35.819-29.377L79.576,271.65l-23.606-6.825L54.291,252.319z M55.308,264.634l-11.853-3.426
						l10.263-8.417L55.308,264.634z M103.835,210.871L91.11,221.308l14.154-65.441c0.043,0.001,0.083,0.013,0.126,0.013
						c0.356,0,0.694-0.07,1.019-0.173L103.835,210.871z M107.055,155.479l23.763,33.265l-26.323,21.588L107.055,155.479z
						 M103.796,211.72l-2.854,61.188c0.041-0.003,0.082-0.008,0.123-0.008c0.172,0,0.342,0.012,0.51,0.025l2.881-61.745
						l26.73-21.924l38.543,53.952l-87.007,78.96l-11.268-9.979l5.523-25.537l19.091-5.911c-0.089-0.191-0.169-0.388-0.235-0.589
						l-18.703,5.793l2.921-13.501l15.692,4.536c0.056-0.204,0.12-0.403,0.197-0.6l-15.756-4.556L90.896,222.3L103.796,211.72z
						 M70.036,339.355c0.092-0.365,0.154-0.74,0.154-1.135c0-1.1-0.395-2.097-1.027-2.896l13.563-12.309l36.083,31.957l-0.104,0.113
						L70.036,339.355z M118.239,355.601l-28.205,31.092l-22.17-44.44c0.891-0.524,1.597-1.322,1.985-2.291L118.239,355.601z
						 M79.442,272.271l-3.004,13.891l-16.903,5.234l-3.475-25.886L79.442,272.271z M60.372,302.376l-8.849-7.836l7.485-2.32
						L60.372,302.376z M59.621,292.029l16.665-5.161l-5.374,24.844l-9.816-8.696L59.621,292.029z M71.303,312.898l10.948,9.696
						L68.748,334.85c-0.541-0.521-1.211-0.899-1.954-1.112L71.303,312.898z M67.308,342.548l22.272,44.646l-24.079,26.543
						l0.296-70.855C66.328,342.849,66.84,342.742,67.308,342.548z M89.882,387.801l26.946,54.015l-51.516,17.209l0.185-44.344
						L89.882,387.801z M117.112,442.386l25.146,50.408c-1.066,0.684-1.852,1.747-2.19,3.002l-74.87-9.369l0.111-26.736
						L117.112,442.386z M117.718,442.184l39.505-13.196l-14.093,63.357c-0.107,0.044-0.21,0.098-0.314,0.147L117.718,442.184z
						 M117.434,441.611l-27.097-54.313l28.563-31.483l1.354,0.438l44.401,39.322l-7.271,32.692L117.434,441.611z M120.572,355.69
						l-0.866-0.767l71.524-78.842l-21.258,95.576L120.572,355.69z M169.834,372.278l-5.023,22.593l-43.059-38.135L169.834,372.278z
						 M165.194,396.056l24.271,21.495l-31.384,10.483L165.194,396.056z M165.352,395.351l5.089-22.875l75.731,24.479
						c-0.038,0.251-0.076,0.501-0.076,0.762c0,0.305,0.038,0.6,0.09,0.89l-56.028,18.716L165.352,395.351z M191.963,274.335
						l-72.729,80.172l-36.037-31.916l86.901-78.864L191.963,274.335z M203.099,212.925L170.2,242.78l-38.525-53.926l44.408-36.421
						L203.099,212.925z M113.712,12.786l62.104,139.052l-44.509,36.503l-23.761-33.258c0.747-0.621,1.232-1.547,1.232-2.595
						c0-1.151-0.578-2.167-1.457-2.778L113.712,12.786z M113.067,13.045l-6.361,136.321c-0.403-0.172-0.849-0.267-1.314-0.267
						c-1.872,0-3.39,1.519-3.39,3.389c0,1.61,1.126,2.953,2.635,3.298l-14.313,66.165l-36.133,29.635l-11.511-85.773L113.067,13.045
						z M3.986,249.796l38.2-82.912l11.432,85.174l-10.897,8.938L3.986,249.796z M42.862,261.693l12.536,3.624l3.524,26.268
						l-7.952,2.464l-22.866-20.251L42.862,261.693z M6.34,255.366l20.791,18.413l-4.754,3.898L6.34,255.366z M22.746,278.191
						l4.863-3.988l22.655,20.063l-13.06,4.044L22.746,278.191z M63.035,334.249l-25.438-35.396l13.222-4.097l9.684,8.576
						l4.066,30.295C64.013,333.739,63.5,333.961,63.035,334.249z M61.224,303.973l9.536,8.446l-4.581,21.184
						c-0.224-0.033-0.444-0.069-0.678-0.069c-0.104,0-0.203,0.024-0.307,0.032L61.224,303.973z M8.193,478.104l0.18-0.454
						l56.49-62.271l-0.185,43.856L8.193,478.104z M69.338,587.803c-0.683-0.389-1.461-0.626-2.302-0.626
						c-0.729,0-1.635,0.316-2.251,0.616l-0.011-0.334l0.242-57.719h52.631L69.338,587.803z M118.172,529.109H65.02l0.176-42.047
						l74.747,9.352c-0.035,0.24-0.074,0.479-0.074,0.729c0,1.521,0.67,2.88,1.719,3.827L118.172,529.109z M118.993,529.109
						l23.079-27.738c0.241,0.171,0.501,0.313,0.771,0.441l-5.112,27.297H118.993z M126.448,592.755l0.148-0.799l0.193-0.08
						L126.448,592.755z M159.888,577.191l-7.167-45.979c-0.202,0.045-0.413,0.067-0.629,0.072l7.194,46.161l-31.364,13.267
						l22.857-59.473c-0.185-0.126-0.335-0.02-0.489-0.181l-23.179,59.996l-0.375,0.158l11.518-61.474l10.523-0.018
						c-0.008-0.089-0.209-0.51-0.194-0.631l-10.211,0.018l5.071-27.068c0.506,0.165,1.036,0.277,1.597,0.277
						c1.312,0,2.492-0.503,3.404-1.306l94.736,37.689c-0.116,0.383-0.197,0.779-0.197,1.199c0,0.701,0.189,1.353,0.499,1.933
						L159.888,577.191z M426.899,503.482l-179.501-4.55l-0.005,0.631l179.442,4.548c-0.009,0.123-0.036,0.24-0.036,0.365
						c0,0.051,0.013,0.098,0.015,0.148l-175.603,34.721c-0.273-2.021-1.988-3.586-4.087-3.586l-1.159,0.186
						c-1.132,0.331-2.058,1.122-2.562,2.168l-94.479-37.587c0.792-0.909,1.288-2.083,1.288-3.383c0-0.016-0.004-0.03-0.004-0.045
						l94.74,2.403l-0.008-0.632l-94.797-2.403c-0.335-2.535-2.48-4.497-5.106-4.497c-0.419,0-0.823,0.063-1.215,0.159l14.096-63.376
						l32.091-10.721l75.025,66.51l0.166-0.622L190.7,417.803l52.946-17.688l2.558-0.86c0,0,0.661,1.167,0.826,1.404
						c0.932,1.346,2.478,2.229,4.236,2.229c1.603,0,3.016-0.744,3.965-1.887l37.576,21.961l-22.062,57.557l0.589,0.225
						l22.023-57.459l134.242,78.452C427.27,502.266,427.022,502.851,426.899,503.482z"/>
				</g>
				<path opacity="0.45" enable-background="new    " d="M523.693,512.263c-0.169-2.844-2.508-5.105-5.394-5.105
					c-2.25,0-4.181,1.371-5.003,3.32l-146.151-51.726l20.003-54.989c0.404,0.096,0.825,0.151,1.26,0.151
					c3.001,0,5.433-2.433,5.433-5.434s-2.432-5.434-5.433-5.434s-5.433,2.433-5.433,5.434c0,0.938,0.236,1.82,0.654,2.59
					l-59.501,42.457l-46.688-16.524l-35.066-124.656c1.363-0.488,2.346-1.779,2.346-3.312c0-1.946-1.579-3.525-3.526-3.525
					c-0.708,0-1.364,0.213-1.917,0.571l-35.297-19.111l25.194-166.895c0.055,0.002,0.104,0.016,0.159,0.016
					c1.898,0,3.438-1.539,3.438-3.438c0-1.898-1.539-3.438-3.438-3.438c-1.026,0-1.938,0.459-2.566,1.172l-59.202-42.368
					l-1.073-0.072l59.933,42.893c-0.33,0.528-0.527,1.146-0.527,1.814c0,1.33,0.763,2.472,1.868,3.042l-97.208,127.52L3.613,168.48
					l-0.301,0.556l126.854,68.686l-26.649,34.961c-0.938-0.772-2.123-1.258-3.436-1.258c-1.349,0-2.565,0.51-3.517,1.324
					L3.254,175.968L2.8,176.403l93.308,96.777c-0.894,0.967-1.451,2.249-1.451,3.669c0,2.049,1.148,3.813,2.826,4.735
					l-33.341,70.101l-61.42-21.649l-0.208,0.598l61.354,21.627l-22.995,48.349L2.854,356.987L2.377,357.4l38.199,43.829
					l-21.908,46.063c-0.611-0.239-1.272-0.384-1.971-0.384c-1.117,0-2.155,0.34-3.019,0.918l-16.44-20.979l-0.496,0.39
					l16.448,20.989c-1.165,0.996-1.92,2.459-1.92,4.109l-0.04,0.313l0.071,0.009c0.17,2.829,2.482,5.076,5.35,5.102l4.887,97.706
					c-2.719,0.296-4.842,2.571-4.842,5.366c0,2.998,2.429,5.429,5.427,5.429c2.732,0,4.974-2.028,5.35-4.658l27.642,2.334
					l8.438,24.807c0,0,0.296-0.395,0.483-0.51l-8.233-24.239l56.883,4.807l-40.969,22.794c-0.093,0.326,0.117,0.456-0.041,0.749
					l42.147-23.447l87.143,7.36l19.642,18.972l7.117-16.711l88.519,7.477c0.805,1.988,2.748,3.394,5.024,3.394
					c2.834,0,5.136-2.184,5.378-4.955l186.695-69.66c0.842,1.906,2.741,3.24,4.96,3.24c2.996,0,5.426-2.431,5.426-5.429l0.035-0.313
					L523.693,512.263z M513.11,511.081c-0.001,0.002-0.001,0.003-0.001,0.003l-158.589-17.621l12.409-34.117L513.11,511.081z
					 M383.97,401.606c0.632,0.896,1.526,1.589,2.573,1.972l-19.992,54.964l-41.693-14.759L383.97,401.606z M324.229,444.232
					l42.104,14.901l-12.46,34.257l-59.621-6.626l-4.954-17.61L324.229,444.232z M273.313,480.563l15.44-11.019l4.823,17.146
					l-18.768-2.086c0.004-0.096,0.027-0.188,0.027-0.283C274.837,482.858,274.252,481.537,273.313,480.563z M323.502,443.976
					l-34.385,24.535l-11.467-40.765L323.502,443.976z M288.571,468.898l-15.747,11.236c-0.936-0.764-2.113-1.24-3.413-1.24
					c-0.072,0-0.139,0.019-0.209,0.021l-8.923-57.315l16.644,5.89L288.571,468.898z M180.847,397.015l-52.489,17.584l-8.859-42.729
					l61.163,21.561c-0.138,0.479-0.233,0.973-0.233,1.495C180.426,395.664,180.575,396.369,180.847,397.015z M238.166,300.822
					l-49.953,89.236c-0.392-0.191-0.802-0.352-1.239-0.443l14.659-97.106l36.58,4.656c-0.343,0.543-0.548,1.182-0.548,1.87
					C237.665,299.691,237.855,300.297,238.166,300.822z M189.239,399.132l75.219,82.987c-0.172,0.388-0.298,0.796-0.375,1.226
					l-96.635-11.976l19.502-71.131C187.812,400.063,188.581,399.662,189.239,399.132z M166.813,471.292l-27.407-3.396
					l-10.922-52.674l52.662-17.643c0.932,1.647,2.679,2.771,4.706,2.771c0.146,0,0.28-0.031,0.424-0.043L166.813,471.292z
					 M138.745,467.813l-44.06-5.459l-24.156-27.718l57.354-19.214L138.745,467.813z M93.746,462.237l-71.725-8.888
					c0.063-0.328,0.103-0.666,0.103-1.014c0-0.492-0.087-0.962-0.21-1.414l47.966-16.068L93.746,462.237z M94.368,462.951
					l54.846,62.931c-0.107,0.112-0.209,0.232-0.3,0.362L21.622,454.587c0.092-0.199,0.158-0.409,0.227-0.621L94.368,462.951z
					 M95.31,463.066l43.571,5.399l11.726,56.554c-0.33,0.103-0.642,0.248-0.915,0.445L95.31,463.066z M139.541,468.55l27.104,3.356
					l-14.533,53.007c-0.178-0.029-0.357-0.056-0.545-0.056c-0.117,0-0.229,0.023-0.345,0.035L139.541,468.55z M167.279,471.984
					l96.739,11.986c-0.008,0.118-0.035,0.229-0.035,0.35c0,0.328,0.041,0.646,0.096,0.955L154.461,526.67
					c-0.358-0.728-0.977-1.299-1.738-1.59L167.279,471.984z M154.528,529.406l18.768,6.179l-8.631,4.729l-10.568-10.211
					C154.268,529.89,154.416,529.66,154.528,529.406z M154.727,528.808c0.051-0.229,0.082-0.465,0.082-0.709
					c0-0.291-0.052-0.569-0.124-0.838l108.729-41.059l-89.356,48.968L154.727,528.808z M264.396,486.385
					c0.268,0.65,0.657,1.236,1.144,1.732l-28.825,67.679l-61.838-20.355L264.396,486.385z M189.773,398.656
					c0.451-0.473,0.824-1.019,1.081-1.629l68.526,24.254l8.894,57.737c-1.909,0.153-3.519,2.329-3.519,2.329L189.773,398.656z
					 M241.765,302.507l34.948,124.237l-16.544-5.854l-18.431-118.381C241.747,302.507,241.756,302.507,241.765,302.507z
					 M241.098,302.554l18.176,118.02l-68.231-24.147c0.141-0.48,0.237-0.978,0.237-1.501c0-1.921-1.004-3.6-2.51-4.563
					l49.808-88.979C239.202,302.078,240.093,302.525,241.098,302.554z M238.738,296.509c-0.026,0.025-0.051,0.053-0.076,0.078
					l-36.936-4.701l2.15-14.252L238.738,296.509z M228.373,109.938c0.06,0.018,0.114,0.04,0.175,0.055L203.39,276.649
					l-72.271-39.132L228.373,109.938z M130.729,238.025l72.56,39.287l-2.188,14.492l-96.334-12.262
					c0.459-0.796,0.741-1.707,0.741-2.693c0-1.457-0.582-2.772-1.518-3.748L130.729,238.025z M104.378,280.132l96.629,12.299
					l-14.661,97.117c-0.164-0.017-0.324-0.052-0.492-0.052c-1.573,0-2.978,0.681-3.969,1.748l-79.857-109.342
					C102.97,281.54,103.774,280.921,104.378,280.132z M101.389,282.102l80.083,109.646c-0.243,0.336-0.46,0.689-0.623,1.077
					l-61.501-21.678l-18.441-88.952C101.069,282.17,101.229,282.142,101.389,282.102z M98.043,281.874
					c0.631,0.257,1.317,0.403,2.039,0.403c0.065,0,0.127-0.018,0.192-0.02l18.378,88.643l-53.913-19.004L98.043,281.874z
					 M64.466,352.472l54.337,19.151l8.951,43.177l-57.675,19.32l-28.754-32.992L64.466,352.472z M41.029,401.751l28.401,32.588
					l-47.704,15.979c-0.479-1.188-1.369-2.149-2.489-2.749L41.029,401.751z M21.322,455.142l127.281,71.652
					c-0.178,0.399-0.278,0.84-0.278,1.305c0,0.166,0.024,0.324,0.049,0.484l-96.396,24.375l-33.158-95.627
					C19.869,456.886,20.734,456.107,21.322,455.142z M22.167,555.41l-4.885-97.706c0.321-0.033,0.632-0.095,0.935-0.184
					l33.146,95.593l-24.088,6.092C26.583,557.022,24.572,555.431,22.167,555.41z M27.536,560.974
					c0.001-0.049,0.014-0.093,0.014-0.141c0-0.351-0.04-0.689-0.104-1.021l24.123-6.1l3.318,9.571L27.536,560.974z M113.688,568.249
					l-58.109-4.908l-3.395-9.784l96.345-24.362c0.451,1.249,1.635,2.146,3.04,2.146c0.801,0,1.523-0.302,2.09-0.783l10.429,10.075
					L113.688,568.249z M114.825,568.347l49.737-27.255l35.685,34.47L114.825,568.347z M220.384,594.137l-18.424-17.796l25.103,2.119
					L220.384,594.137z M227.321,577.849l-26.079-2.203l-36.102-34.871l8.977-4.919l62.349,20.522L227.321,577.849z M316.04,585.343
					l-88.056-7.438l9.083-21.328l78.974,25.994c-0.118,0.446-0.201,0.905-0.201,1.388
					C315.84,584.439,315.923,584.897,316.04,585.343z M316.229,581.969l-78.912-25.977l28.727-67.446
					c0.929,0.74,2.088,1.201,3.368,1.201c0.325,0,0.641-0.041,0.948-0.096l46.718,90.897
					C316.729,580.977,316.436,581.447,316.229,581.969z M317.524,580.044l-46.538-90.557c1.938-0.592,3.413-2.22,3.759-4.255
					l19.017,2.113l25.739,91.504C318.757,579.107,318.083,579.511,317.524,580.044z M321.268,578.531
					c-0.399,0-0.786,0.049-1.161,0.132l-25.668-91.242l59.215,6.58l-30.839,84.782C322.319,578.636,321.81,578.531,321.268,578.531z
					 M326.671,583.746c-0.083-2.14-1.392-3.963-3.257-4.769l30.885-84.905l158.663,17.631c-0.048,0.287-0.089,0.578-0.089,0.88
					c0,0.557,0.108,1.084,0.266,1.59L326.671,583.746z"/>
			</g>
			<g id="neuralMeshRight">
				
					<linearGradient id="SVGID_1_" gradientUnits="userSpaceOnUse" x1="974.8018" y1="-6184.7007" x2="684.8558" y2="-6424.0747" gradientTransform="matrix(1 0 0 -1 -0.0151 -6097.0664)">
					<stop  offset="0" style="stop-color:#000000"/>
					<stop  offset="0.8575" style="stop-color:#000000;stop-opacity:0.8885"/>
					<stop  offset="1" style="stop-color:#000000;stop-opacity:0.87"/>
				</linearGradient>
				<path opacity="0.63" fill="url(#SVGID_1_)" enable-background="new    " d="M959.071,300.758l0.478-0.413l-38.199-43.829
					l21.908-46.063c0.611,0.238,1.272,0.383,1.971,0.383c1.117,0,2.155-0.34,3.019-0.918l10.815,13.752l0.496-0.391l-10.823-13.761
					c1.165-0.996,1.92-2.459,1.92-4.108l0.04-0.313l-0.072-0.009c-0.169-2.829-2.481-5.076-5.349-5.102l-4.887-97.706
					c2.719-0.296,4.842-2.571,4.842-5.366c0-2.998-2.429-5.429-5.427-5.429c-2.732,0-4.974,2.028-5.35,4.658l-27.642-2.334
					l-10.819-31.202l-47.89,26.243l-87.144-7.36l-19.641-18.972l-7.117,16.711l-88.519-7.477c-0.806-1.988-2.748-3.394-5.024-3.394
					c-2.834,0-5.136,2.184-5.378,4.955l-186.695,69.66c-0.842-1.906-2.741-3.24-4.96-3.24c-2.996,0-5.426,2.431-5.426,5.429
					l-0.035,0.313l0.067,0.008c0.169,2.845,2.508,5.105,5.394,5.105c2.25,0,4.181-1.371,5.003-3.32l146.151,51.727l-22.557,62.012
					l65.571-46.788l46.689,16.525l35.065,124.655c-1.362,0.488-2.345,1.779-2.345,3.312c0,1.946,1.579,3.525,3.526,3.525
					c0.708,0,1.364-0.213,1.917-0.571l35.297,19.111l-24.658,163.333c-0.121-0.009-0.235-0.036-0.358-0.036
					c-2.893,0-5.235,2.344-5.235,5.236c0,2.891,2.344,5.234,5.235,5.234c2.891,0,5.234-2.345,5.234-5.234
					c0-1.62-0.751-3.049-1.905-4.01l95.111-124.769l126.941,68.732l0.301-0.556l-126.854-68.686l26.65-34.961
					c0.938,0.772,2.123,1.258,3.436,1.258c1.349,0,2.565-0.51,3.517-1.324l93.312,96.781l0.454-0.437l-93.307-96.777
					c0.893-0.967,1.451-2.249,1.451-3.669c0-2.049-1.148-3.813-2.826-4.735l33.341-70.101l61.42,21.648l0.208-0.597l-61.354-21.627
					l22.995-48.349L959.071,300.758z M781.08,260.73l52.489-17.584l8.859,42.729l-61.163-21.561
					c0.138-0.479,0.234-0.973,0.234-1.495C781.5,262.081,781.352,261.376,781.08,260.73z M723.761,356.923l49.953-89.236
					c0.392,0.191,0.802,0.352,1.239,0.443l-14.659,97.106l-36.58-4.656c0.343-0.543,0.548-1.182,0.548-1.87
					C724.262,358.054,724.07,357.448,723.761,356.923z M772.688,258.613l-76.128-81.59c0,0,1.175-1.665,1.284-2.623l96.635,11.976
					l-19.502,71.131C774.115,257.684,773.346,258.083,772.688,258.613z M822.386,189.195l-27.104-3.356l14.533-53.007
					c0.178,0.029,0.357,0.056,0.545,0.056c0.117,0,0.229-0.023,0.345-0.035L822.386,189.195z M811.32,132.726
					c0.33-0.103,0.642-0.248,0.915-0.445l54.382,62.398l-43.571-5.399L811.32,132.726z M794.646,185.761l-96.739-11.986
					c0.008-0.118,0.035-0.229,0.035-0.35c0-0.328-0.041-0.646-0.096-0.955l109.618-41.394c0.358,0.727,0.977,1.298,1.738,1.589
					L794.646,185.761z M807.397,128.339l-18.768-6.178l8.631-4.73l10.568,10.211C807.659,127.855,807.511,128.085,807.397,128.339z
					 M807.2,128.938c-0.051,0.229-0.082,0.465-0.082,0.709c0,0.291,0.052,0.569,0.124,0.838l-108.729,41.059l89.356-48.967
					L807.2,128.938z M697.53,171.36c-0.268-0.65-0.657-1.236-1.144-1.732l28.825-67.678l61.838,20.354L697.53,171.36z
					 M772.152,259.089c-0.451,0.473-0.824,1.019-1.081,1.629l-68.526-24.254l-8.894-57.737c0.874-0.187,1.653-0.597,2.316-1.146
					L772.152,259.089z M795.112,186.454l27.407,3.396l10.922,52.674l-52.662,17.643c-0.932-1.647-2.679-2.771-4.706-2.771
					c-0.146,0-0.28,0.031-0.424,0.043L795.112,186.454z M823.182,189.933l44.06,5.459l24.156,27.718l-57.354,19.215L823.182,189.933
					z M868.181,195.508l71.725,8.888c-0.063,0.328-0.103,0.666-0.103,1.015c0,0.491,0.087,0.961,0.21,1.414l-47.966,16.067
					L868.181,195.508z M867.559,194.794l-54.846-62.931c0.107-0.112,0.209-0.232,0.3-0.362l127.292,71.658
					c-0.092,0.198-0.158,0.408-0.227,0.62L867.559,194.794z M813.322,130.952c0.178-0.4,0.278-0.841,0.278-1.306
					c0-0.166-0.024-0.324-0.049-0.483l96.396-24.375l33.158,95.626c-1.051,0.445-1.916,1.224-2.504,2.189L813.322,130.952z
					 M939.76,102.335l4.885,97.706c-0.321,0.034-0.632,0.095-0.936,0.184l-33.145-95.593l24.088-6.092
					C935.344,100.723,937.354,102.314,939.76,102.335z M934.391,96.771c-0.001,0.049-0.014,0.093-0.014,0.142
					c0,0.35,0.039,0.688,0.104,1.021l-24.123,6.101l-3.318-9.572L934.391,96.771z M895.642,63.521l10.481,30.231l-56.882-4.807
					L895.642,63.521z M848.239,89.497l58.109,4.907l3.395,9.784l-96.345,24.362c-0.451-1.249-1.635-2.146-3.04-2.146
					c-0.801,0-1.523,0.302-2.09,0.783l-10.429-10.075L848.239,89.497z M847.102,89.398l-49.737,27.255l-35.685-34.47L847.102,89.398
					z M741.543,63.608l18.424,17.796l-25.103-2.118L741.543,63.608z M734.604,79.896l26.079,2.203l36.102,34.871l-8.977,4.919
					l-62.35-20.521L734.604,79.896z M645.887,72.402l88.056,7.438l-9.083,21.328l-78.974-25.994
					c0.118-0.446,0.201-0.905,0.201-1.387C646.087,73.306,646.004,72.848,645.887,72.402z M645.697,75.776l78.912,25.977
					L695.884,169.2c-0.929-0.741-2.088-1.202-3.368-1.202c-0.325,0-0.641,0.041-0.948,0.096L644.85,77.196
					C645.198,76.77,645.491,76.298,645.697,75.776z M644.401,77.702l46.538,90.556c-1.938,0.592-3.413,2.22-3.759,4.255
					l-19.017-2.113l-25.739-91.504C643.17,78.638,643.844,78.234,644.401,77.702z M688.614,177.183l-15.44,11.02l-4.823-17.146
					l18.768,2.086c-0.004,0.096-0.027,0.188-0.027,0.283C687.09,174.887,687.675,176.208,688.614,177.183z M640.659,79.214
					c0.399,0,0.786-0.049,1.161-0.132l25.668,91.243l-59.215-6.58l30.839-84.783C639.606,79.109,640.117,79.214,640.659,79.214z
					 M635.256,73.999c0.083,2.14,1.392,3.963,3.257,4.769l-30.885,84.905l-158.662-17.631c0.047-0.287,0.088-0.578,0.088-0.879
					c0-0.558-0.108-1.084-0.266-1.591L635.256,73.999z M448.815,146.664c0.001-0.001,0.001-0.002,0.001-0.005l158.589,17.624
					l-12.409,34.116L448.815,146.664z M573.514,259.31l21.861-60.104l41.694,14.758L573.514,259.31z M637.697,213.513
					l-42.104-14.901l12.46-34.257l59.621,6.626l4.954,17.61L637.697,213.513z M638.425,213.771l34.385-24.535L684.276,230
					L638.425,213.771z M673.354,188.847l15.747-11.236c0.936,0.764,2.113,1.24,3.413,1.24c0.072,0,0.139-0.019,0.209-0.021
					l8.923,57.315l-16.644-5.89L673.354,188.847z M720.162,355.238l-34.948-124.237l16.544,5.854l18.431,118.381
					C720.18,355.238,720.171,355.238,720.162,355.238z M720.829,355.191l-18.176-118.02l68.231,24.147
					c-0.141,0.48-0.237,0.978-0.237,1.501c0,1.922,1.004,3.6,2.51,4.563l-49.808,88.979
					C722.725,355.667,721.834,355.22,720.829,355.191z M723.188,361.236c0.026-0.024,0.051-0.052,0.076-0.078l36.936,4.701
					l-2.15,14.252L723.188,361.236z M735.76,544.913c-0.553-0.355-1.172-0.612-1.84-0.74l24.617-163.077l72.271,39.132
					L735.76,544.913z M831.197,419.72l-72.56-39.287l2.188-14.492l96.334,12.262c-0.459,0.796-0.741,1.707-0.741,2.693
					c0,1.457,0.581,2.773,1.518,3.748L831.197,419.72z M857.549,377.613l-96.629-12.299l14.661-97.117
					c0.164,0.017,0.324,0.052,0.492,0.052c1.573,0,2.978-0.681,3.968-1.748l79.858,109.342
					C858.957,376.205,858.151,376.824,857.549,377.613z M860.538,375.645l-80.083-109.646c0.243-0.336,0.461-0.689,0.623-1.077
					l61.501,21.679l18.441,88.951C860.856,375.575,860.696,375.604,860.538,375.645z M863.884,375.871
					c-0.631-0.257-1.317-0.403-2.039-0.403c-0.065,0-0.127,0.018-0.192,0.02l-18.378-88.643l53.913,19.004L863.884,375.871z
					 M897.461,305.273l-54.336-19.151l-8.952-43.177l57.675-19.32l28.754,32.993L897.461,305.273z M892.495,223.406l47.704-15.979
					c0.479,1.188,1.369,2.15,2.489,2.749l-21.792,45.819L892.495,223.406z"/>
				<circle opacity="0.35" enable-background="new    " cx="857.269" cy="509.454" r="5.173"/>
				<g opacity="0.25">
					<path d="M958.243,195.97l-8.849,5.959c0.131,0.165,0.249,0.338,0.359,0.518l8.842-5.954L958.243,195.97z"/>
					<path d="M958.005,243.622l-11.455-33.093c-0.204,0.056-0.412,0.099-0.624,0.13l11.481,33.17L958.005,243.622z"/>
					<path d="M920.729,397.591l14.501-11.893l25.104,22.231L940.97,380.99l17.65-14.477l-0.399-0.487l-17.619,14.45l-14.314-19.915
						l32.386-10.03l-0.188-0.604l-32.586,10.094l-25.569-35.576c1.039-0.858,1.714-2.143,1.714-3.596
						c0-0.163-0.03-0.316-0.048-0.477l55.767-9.562l-0.106-0.622l-55.755,9.56c-0.055-0.229-0.12-0.457-0.208-0.672l57.025-27.938
						l-0.278-0.565L901.4,318.516c-0.46-0.795-1.14-1.438-1.965-1.85l44.134-106.175c-0.203-0.061-0.401-0.133-0.594-0.216
						l-44.124,106.15c-0.368-0.125-0.757-0.204-1.16-0.233l0.299-71.558l55.84-61.554l-6.761,17.134
						c0.198,0.075,0.394,0.16,0.578,0.258l7.384-18.716l0.719-1.819l2.967-7.519l-0.587-0.232l-3.021,7.657l-25.035-49.884h29.239
						v-0.631h-29.556l-29.915-59.746c0.414-0.699,0.668-1.506,0.668-2.377c0-2.415-1.834-4.383-4.182-4.64l-0.052-0.104
						l-0.164,0.082c-0.099-0.007-0.191-0.029-0.292-0.029c-2.589,0-4.688,2.1-4.688,4.689c0,1.518,0.734,2.854,1.854,3.713
						l-48.599,58.41h-19.144l11.572-61.769l9.951-4.209l-0.246-0.58l-9.565,4.046l0.692-3.697l-0.604-0.174l-1.792,4.592
						l-31.779,13.44l-2.659-17.964l-0.625,0.094l2.684,18.124l-83.839,35.46c-0.755-1.009-1.947-1.669-3.305-1.669
						c-2.261,0-4.094,1.814-4.136,4.064l-175.616,34.725c-0.38-2.483-2.506-4.395-5.095-4.395c-2.857,0-5.175,2.315-5.175,5.174
						c0,2.857,2.316,5.174,5.175,5.174c1.619,0,3.047-0.76,3.996-1.924l134.388,78.539l-27.341,71.853l0.59,0.224l27.303-71.752
						l37.418,21.867c-0.516,0.806-0.824,1.757-0.824,2.782c0,2.857,2.317,5.173,5.176,5.173c0.603,0,1.172-0.123,1.709-0.312
						l55.938,117.286l23.052,32.268l-32.801,29.768l-39.646-88.77l8.038,118.308l31.388-28.484l27.001,60.459l-48.699,39.853
						l0.257,0.566l48.709-39.821l62.544,140.038l-0.072,1.55l0.68-1.475l70.647-153.334l20.274,151.072l0.627-0.085l-20.408-152.06
						l38.926-84.483L920.729,397.591z M728.421,473.732l-7.712-113.471l38.285,85.723L728.421,473.732z M919.992,397.378
						l-12.536-3.624l-3.524-26.268l7.953-2.464l22.865,20.251L919.992,397.378z M861.821,386.292c-0.187,0-0.362-0.036-0.544-0.056
						l-2.877,61.654l-26.729,21.924l-38.544-53.952l87.008-78.96l11.267,9.979l-5.522,25.537l-19.386,6.004
						c0.103,0.188,0.204,0.373,0.283,0.571l18.949-5.868l-2.921,13.501l-15.767-4.559c-0.045,0.208-0.118,0.404-0.188,0.604
						l15.819,4.573l-10.712,49.526l-12.899,10.58l2.85-61.069C861.88,386.283,861.853,386.292,861.821,386.292z M858.361,448.74
						l-2.561,54.853l-23.764-33.265L858.361,448.74z M798.046,264.2l43.058,38.135l-48.082-15.542L798.046,264.2z M797.66,263.017
						l-24.271-21.495l31.384-10.483L797.66,263.017z M842.282,303.381l0.866,0.767l-71.523,78.842l21.258-95.576L842.282,303.381z
						 M842.604,302.819l-44.401-39.322l7.271-32.692l39.95-13.345l27.096,54.313l-28.563,31.483L842.604,302.819z M902.482,356.695
						l8.849,7.836l-7.485,2.32L902.482,356.695z M906.795,393.563l-23.383-6.761l3.004-13.891l16.903-5.234L906.795,393.563z
						 M903.233,367.042l-16.665,5.161l5.374-24.844l9.817,8.696L903.233,367.042z M891.554,346.173l-10.949-9.696l13.503-12.254
						c0.541,0.521,1.211,0.898,1.954,1.112L891.554,346.173z M893.006,319.111l-48.391-15.641l28.205-31.092l22.17,44.44
						C894.101,317.346,893.395,318.144,893.006,319.111z M895.549,316.523l-22.273-44.646l24.079-26.543l-0.296,70.855
						C896.526,316.224,896.016,316.328,895.549,316.523z M872.974,271.271l-26.946-54.015l51.517-17.209l-0.186,44.344
						L872.974,271.271z M845.742,216.687l-25.146-50.408c1.066-0.684,1.852-1.748,2.19-3.002l74.87,9.369l-0.11,26.736
						L845.742,216.687z M845.138,216.889l-39.504,13.196l14.092-63.357c0.107-0.044,0.21-0.098,0.314-0.147L845.138,216.889z
						 M844.149,303.983l48.669,15.731c-0.092,0.364-0.154,0.739-0.154,1.135c0,1.099,0.395,2.096,1.027,2.896l-13.563,12.31
						l-36.083-31.957L844.149,303.983z M883.278,387.421l23.607,6.825l1.678,12.506l-35.819,29.377L883.278,387.421z
						 M907.549,394.438l11.852,3.426l-10.263,8.417L907.549,394.438z M956.516,403.705l-20.791-18.413l4.754-3.898L956.516,403.705z
						 M940.108,380.88l-4.863,3.988l-22.654-20.063l13.059-4.044L940.108,380.88z M899.819,324.821l25.439,35.396l-13.223,4.097
						l-9.684-8.576l-4.066-30.295C898.844,325.331,899.354,325.11,899.819,324.821z M901.633,355.101l-9.537-8.447l4.582-21.184
						c0.223,0.033,0.443,0.068,0.677,0.068c0.104,0,0.203-0.023,0.307-0.031L901.633,355.101z M899.426,70.169l29.623,59.162
						h-30.578l0.243-58.009l-0.271-0.229C898.818,70.839,899.139,70.519,899.426,70.169z M898.468,129.962h30.896l24.999,49.811
						l-56.072-7.686L898.468,129.962z M898.288,172.724l56.091,7.675l-56.2,18.772L898.288,172.724z M954.661,180.969l-0.18,0.454
						l-56.49,62.271l0.186-43.856L954.661,180.969z M893.518,71.27c0.683,0.389,1.461,0.626,2.302,0.626
						c0.73,0,1.414-0.182,2.03-0.479l0.23,0.197l-0.241,57.719h-52.631L893.518,71.27z M844.684,129.962h53.153l-0.177,42.047
						l-74.747-9.353c0.035-0.239,0.074-0.479,0.074-0.729c0-1.522-0.67-2.88-1.719-3.827L844.684,129.962z M843.861,129.962
						L820.782,157.7c-0.241-0.171-0.501-0.313-0.771-0.441l5.112-27.297H843.861z M836.406,66.316l-0.147,0.798l-0.194,0.081
						L836.406,66.316z M802.969,81.88l6.608,44.645c0.202-0.051,0.411-0.08,0.626-0.091l-6.635-44.808l31.364-13.267l-22.852,58.555
						c0.188,0.115,0.361,0.248,0.521,0.396l23.141-59.295l0.375-0.158l-11.518,61.474h-11.003c0.013,0.116,0.035,0.229,0.035,0.351
						c0,0.096-0.021,0.188-0.028,0.28h10.878l-5.071,27.067c-0.506-0.165-1.036-0.276-1.597-0.276c-1.311,0-2.492,0.503-3.404,1.306
						l-94.735-37.689c0.115-0.383,0.196-0.779,0.196-1.199c0-0.701-0.189-1.353-0.499-1.933L802.969,81.88z M716.889,123.126
						c1.132-0.331,2.058-1.122,2.562-2.168l94.479,37.587c-0.792,0.909-1.288,2.083-1.288,3.383c0,0.016,0.004,0.03,0.004,0.045
						l-95.756-2.429L716.889,123.126L716.889,123.126z M716.889,160.175l95.82,2.43c0.335,2.535,2.479,4.497,5.105,4.497
						c0.419,0,0.823-0.063,1.215-0.159l-14.096,63.376l-32.091,10.721l-55.955-49.558L716.889,160.175L716.889,160.175z
						 M716.889,192.324l55.265,48.943l-55.265,18.461V192.324z M772.698,241.752l24.807,21.97l-5.089,22.875l-75.732-24.479
						c0.038-0.251,0.077-0.501,0.077-0.762c0-0.305-0.039-0.6-0.09-0.89L772.698,241.752z M536.04,154.445l175.603-34.721
						c0.273,2.021,1.989,3.586,4.087,3.586c0.182,0,0.354-0.03,0.528-0.053v36.27L536.02,154.96c0.008-0.123,0.036-0.24,0.036-0.365
						C536.056,154.544,536.043,154.497,536.04,154.445z M711.587,256.183c-1.604,0-3.017,0.744-3.966,1.887l-37.575-21.961
						l22.766-59.83l-0.589-0.225l-22.729,59.732l-134.237-78.452c0.331-0.527,0.576-1.112,0.699-1.745l180.303,4.57v30.764
						l-21.289-18.854l-0.418,0.473l21.707,19.225v67.402C715.432,257.407,713.656,256.183,711.587,256.183z M769.78,383.185
						l-55.901-117.212c1.298-0.646,2.274-1.812,2.672-3.235l75.729,24.48l-21.619,97.196L769.78,383.185z M770.893,384.736
						l72.729-80.172l36.037,31.916l-86.9,78.864L770.893,384.736z M759.758,446.146l32.897-29.856l38.525,53.927l-44.408,36.421
						L759.758,446.146z M849.787,646.026l6.15-131.785c-0.213-0.055-0.424-0.111-0.624-0.192l-6.171,132.236l-62.104-139.052
						l44.51-36.503l24.206,33.883v0.012c0.219-0.065,0.44-0.121,0.673-0.156l-0.031-0.044l2.624-56.225l12.725-10.437
						l-14.413,66.641c0.216,0.007,0.425,0.032,0.632,0.064l14.567-67.35l36.133-29.635l11.512,85.773L849.787,646.026z
						 M920.669,492.188l-11.433-85.174l10.898-8.938l38.732,11.198L920.669,492.188z"/>
				</g>
			</g>
</g>
<g id="neuralAngles">
	<g>
		<g id="neuralAnglesLeft">
			<path id="polygon_21" d="M180.848,392.824c0.162-0.387,0.38-0.74,0.623-1.077l-80.083-109.646c-0.159,0.04-1.251,0.15-1.415,0.174
				c-0.682-0.012-1.33-0.157-1.93-0.401l-33.305,70.024l40.441,14.254L180.848,392.824z"/>
			<path id="polygon_20" d="M185.852,389.497c0.168,0,0.33,0.035,0.493,0.051c0.438,0.093,1.477,0.321,1.868,0.512l49.953-89.235
				c-0.311-0.527-0.502-1.131-0.502-1.787c0-0.69,0.206-1.329,0.549-1.872l-38.42-4.889l-95.416-12.144
				c-0.603,0.789-1.408,1.407-2.352,1.77l79.859,109.343C182.875,390.177,184.279,389.497,185.852,389.497z"/>
			<path id="polygon_19" d="M104.768,279.543l88.773,11.301l45.121,5.742l0.076-0.077l-35.451-19.195l-72.559-39.286l-26.737,35.076
				c0.937,0.973,1.519,2.29,1.519,3.747C105.51,277.837,105.227,278.748,104.768,279.543z"/>
			<path id="polygon_22" d="M127.754,414.8l53.092-17.785c-0.271-0.645-0.42-1.351-0.42-2.091c0-0.522,0.098-1.017,0.234-1.495l-61.857-21.804
				v-0.002l-54.337-19.152l-23.14,48.656l28.754,32.994L127.754,414.8z"/>
			<path id="polygon_25" d="M189.773,398.656l74.984,82.691c0,0,1.607-2.176,3.518-2.329l-8.895-57.736l-68.525-24.254
				C190.598,397.639,190.225,398.185,189.773,398.656z"/>
			<polygon id="polygon_18" points="228.548,109.992 228.373,109.938 131.117,237.519 203.389,276.65 			"/>
			<path id="polygon_26" d="M188.77,390.361c1.504,0.965,2.51,2.641,2.51,4.563c0,0.525-0.1,1.02-0.238,1.501l68.231,24.149l-18.175-118.021
				c-1.005-0.027-1.896-0.475-2.521-1.173L188.77,390.361z"/>
			<path id="polygon_27" d="M269.41,478.896c1.301,0,2.479,0.478,3.414,1.24L288.57,468.9l34.932-24.926l-46.58-16.484l-16.643-5.891l8.924,57.316
				L269.41,478.896z"/>
			<path id="polygon_30" d="M269.41,489.749c-1.279,0-2.439-0.462-3.367-1.202l-28.727,67.445l78.912,25.977c0.206-0.521,0.498-0.992,0.848-1.419
				l-46.717-90.897C270.051,489.707,269.736,489.749,269.41,489.749z"/>
			<path id="polygon_29" d="M274.745,485.233c-0.346,2.035-1.819,3.663-3.759,4.255l46.537,90.556c0.519-0.494,1.137-0.876,1.816-1.135v0.001
				c0.375-0.083,1.527-0.378,1.926-0.378c0.543,0,1.053,0.104,1.549,0.252l30.838-84.782l-59.891-6.655L274.745,485.233z"/>
			<path id="polygon_31" d="M264.5,486.582l-0.276-0.725l-0.812,0.346l-108.729,41.058c0.074,0.269,0.125,0.547,0.125,0.839
				c0,0.242-0.031,0.479-0.082,0.708l20.148,6.633l0,0l61.84,20.356l28.824-67.678C265.104,487.675,264.762,487.15,264.5,486.582z"
				/>
			<path id="polygon_28" d="M383.969,401.607l-48.957,34.931l-45.713,32.616v0.001l-15.987,11.407c0.94,0.976,1.526,2.297,1.526,3.758
				c0,0.098-0.025,0.189-0.029,0.283l19.443,2.162l59.622,6.627l12.677-34.851l19.992-54.963
				C385.496,403.197,384.602,402.503,383.969,401.607z"/>
			<path id="polygon_24" d="M263.982,484.32c0-0.118,0.186-1.268,0.193-1.387c0.07-0.281,0.166-0.553,0.283-0.813l-75.22-82.987
				c-0.659,0.529-1.429,0.93-2.288,1.107l-19.503,71.129l-14.727,53.712c0.763,0.291,1.38,0.861,1.739,1.589l109.618-41.394
				C264.024,484.966,263.982,484.649,263.982,484.32z"/>
			<path id="polygon_32" d="M69.879,434.854l-47.965,16.068c0.123,0.453,0.21,0.921,0.21,1.414c0,0.281-0.026,0.556-0.069,0.824
				c-0.068,0.215-0.34,1.228-0.433,1.426l127.292,71.659c0.09-0.131,0.191-0.252,0.3-0.364l-55.468-63.644L69.879,434.854z"/>
			<path id="polygon_33" d="M21.322,455.142c-0.588,0.967-1.453,1.744-2.504,2.19l33.158,95.625l96.397-24.375c-0.024-0.159-0.05-0.318-0.05-0.482
				c0-0.466,0.104-0.905,0.279-1.306L21.322,455.142z"/>
			<path id="polygon_23" d="M186.275,400.308c-0.141,0.012-0.277,0.043-0.424,0.043c-2.025,0-3.773-1.123-4.705-2.771l-55.162,18.479l-55.455,18.578
				l11.922,13.68l67.24,77.149c0.205-0.148,0.432-0.268,0.67-0.36l0.002,0.002c0.113-0.012,1.088-0.249,1.204-0.249
				c0.188,0,0.366,0.024,0.545,0.056l19.69-71.819L186.275,400.308z"/>
		</g>
		<g id="neuralAnglesRight">
			<path id="polygon_16" d="M692.514,167.998c1.281,0,2.441,0.461,3.369,1.202l32.547-76.417l5.512-12.942l-88.057-7.438
				c0.117,0.444,0.201,0.902,0.201,1.384c0,0.379-0.052,0.744-0.131,1.1l-0.001-0.001c-0.001,0.011-0.004,0.021-0.006,0.031
				c-0.02,0.087-0.04,0.172-0.063,0.258c-0.214,0.783-0.727,1.642-1.037,2.021l46.719,90.898
				C691.875,168.039,692.189,167.998,692.514,167.998z"/>
			<path id="polygon_15" d="M665.213,170.072l21.969,2.439c0.346-2.033,1.819-3.662,3.758-4.254L644.4,77.703c-0.557,0.532-1.836,1.121-2.58,1.379
				c-0.375,0.083-0.762,0.133-1.162,0.133c-0.541,0-1.053-0.104-1.546-0.253l-30.839,84.783L665.213,170.072z"/>
			<path id="polygon_17" d="M607.627,163.672l30.885-84.904c-1.865-0.807-3.174-2.629-3.258-4.768l-186.465,69.573
				c0.156,0.506,0.264,1.034,0.264,1.59c0,0.3-0.041,0.592-0.088,0.879L607.627,163.672z"/>
			<path id="polygon_7" d="M696.559,177.025l76.128,81.589c0.657-0.531,1.429-0.931,2.289-1.107l19.671-71.746l14.559-53.095
				c-0.764-0.291-1.381-0.863-1.74-1.59l-109.617,41.393c0.055,0.311,0.094,0.628,0.094,0.956c0,0.119-0.027,0.231-0.035,0.35
				C697.73,175.586,696.559,177.025,696.559,177.025z"/>
			<path id="polygon_14" d="M673.174,188.201l15.441-11.019c-0.941-0.976-1.526-2.296-1.526-3.758c0-0.097,0.024-0.188,0.028-0.284l-18.768-2.086
				v0.001l-60.297-6.701l-12.677,34.851h-0.001l-21.862,60.104l63.556-45.347L673.174,188.201L673.174,188.201z"/>
			<path id="polygon_13" d="M696.387,169.628c0.486,0.497,0.875,1.083,1.144,1.733l0.264,0.598l0.808-0.449l108.641-41.023
				c-0.073-0.27-0.124-0.548-0.124-0.839c0-0.244,0.38-1.366,0.431-1.595l-0.004-0.002c0.085-0.143,0.182-0.278,0.285-0.409
				l-11.045-10.669v-0.001L768.15,89.313l-26.607-25.704l-6.938,16.289h-0.002l-9.144,21.47L696.387,169.628z"/>
			<path id="polygon_12" d="M808.269,127.188c0.565-0.482,1.29-0.782,2.091-0.782c1.404,0,2.588,0.896,3.039,2.146l96.345-24.362l-3.396-9.784
				l-44.258-3.738l-100.411-8.482l41.478,40.065L808.269,127.188z"/>
			<path id="polygon_6" d="M780.779,260.166l52.662-17.642l57.955-19.415l-17.26-19.805l-5.107-5.861l-1.789-2.053l-55.005-63.109
				c-0.274,0.196-0.585,0.342-0.915,0.444c-0.465,0.147-0.721,0.163-0.865,0.163c-0.039,0-0.071-0.001-0.096-0.001
				c-0.188,0-0.369-0.026-0.545-0.056l-14.535,53.007l-19.631,71.599c0.144-0.012,0.279-0.043,0.424-0.043
				C778.1,257.395,779.848,258.518,780.779,260.166z"/>
			<path id="polygon_2" d="M857.158,378.201l-86.809-11.048l-47.086-5.994l-0.076,0.077l46.594,25.23l61.416,33.253l26.738-35.076
				c-0.937-0.975-1.52-2.292-1.52-3.749C856.416,379.91,856.7,378.998,857.158,378.201z"/>
			<path id="polygon_4" d="M842.579,286.6l-61.501-21.678c-0.162,0.388-0.379,0.741-0.623,1.076l80.084,109.646l1.305-0.176
				c0.723,0,1.408,0.146,2.039,0.404l33.303-70.024L842.579,286.6L842.579,286.6z"/>
			<path id="polygon_8" d="M772.152,259.089l-76.185-81.511c-0.663,0.552-1.898,1.041-2.772,1.227l-0.682,0.047c-1.299,0-2.477-0.479-3.412-1.242
				l-15.748,11.237l-34.93,24.924l46.578,16.486l0.353,0.124l3.034,1.074l82.682,29.262
				C771.328,260.107,771.701,259.562,772.152,259.089z"/>
			<path id="polygon_5" d="M808.631,251.502l-27.551,9.229c0.271,0.646,0.42,1.35,0.42,2.091c0,0.521-0.098,1.018-0.234,1.496l61.162,21.559
				l55.033,19.397l23.14-48.656l-28.754-32.993L808.631,251.502z"/>
			<path id="polygon_11" d="M909.949,104.787l-96.396,24.375c0.023,0.162,0.047,0.319,0.047,0.485c0,0.466-0.101,0.905-0.277,1.306l127.281,71.652
				c0.588-0.968,1.453-1.745,2.504-2.191L909.949,104.787z"/>
			<path id="polygon_10" d="M813.012,131.501c-0.092,0.13-0.191,0.249-0.299,0.362l64.672,74.207l14.66,16.822l47.967-16.07
				c-0.123-0.452-0.209-0.921-0.209-1.414c0.067-0.212,0.409-2.049,0.502-2.25L813.012,131.501z"/>
			<path id="polygon_9" d="M773.157,267.385c-1.507-0.964-2.51-2.642-2.51-4.563c0-0.524,0.097-1.021,0.237-1.5l-68.23-24.149l18.174,118.021
				c1.006,0.027,1.896,0.474,2.521,1.171L773.157,267.385z"/>
			<path id="polygon_1" d="M733.919,544.172c0.668,0.129,1.288,0.385,1.839,0.742l95.051-124.686l-72.271-39.133L733.919,544.172z"/>
			<path id="polygon_3" d="M776.072,268.25c-0.168,0-1.258-0.184-1.422-0.199v0.004c-0.326-0.094-0.637-0.222-0.938-0.368l-49.953,89.236
				c0.311,0.526,0.5,1.131,0.5,1.787c0,0.688-0.203,1.328-0.547,1.87l31.586,4.021l3.457,0.44l1.537,0.195l97.254,12.377
				c0.605-0.789,1.41-1.407,2.352-1.771l-79.857-109.341C779.051,267.57,777.646,268.25,776.072,268.25z"/>
		</g>
	</g>
</g>
</svg>
